<?xml version="1.0" encoding="utf-8" standalone="no"?>
<!DOCTYPE svg PUBLIC "-//W3C//DTD SVG 1.1//EN"
  "http://www.w3.org/Graphics/SVG/1.1/DTD/svg11.dtd">
<svg xmlns:xlink="http://www.w3.org/1999/xlink" width="460.8pt" height="345.6pt" viewBox="0 0 460.8 345.6" xmlns="http://www.w3.org/2000/svg" version="1.1">
 <metadata>
  <rdf:RDF xmlns:dc="http://purl.org/dc/elements/1.1/" xmlns:cc="http://creativecommons.org/ns#" xmlns:rdf="http://www.w3.org/1999/02/22-rdf-syntax-ns#">
   <cc:Work>
    <dc:type rdf:resource="http://purl.org/dc/dcmitype/StillImage"/>
    <dc:date>2023-03-30T10:23:52.830893</dc:date>
    <dc:format>image/svg+xml</dc:format>
    <dc:creator>
     <cc:Agent>
      <dc:title>Matplotlib v3.6.3, https://matplotlib.org/</dc:title>
     </cc:Agent>
    </dc:creator>
   </cc:Work>
  </rdf:RDF>
 </metadata>
 <defs>
  <style type="text/css">*{stroke-linejoin: round; stroke-linecap: butt}</style>
 </defs>
 <g id="figure_1">
  <g id="patch_1">
   <path d="M 0 345.6 
L 460.8 345.6 
L 460.8 0 
L 0 0 
z
" style="fill: #ffffff"/>
  </g>
  <g id="axes_1">
   <g id="patch_2">
    <path d="M 57.6 307.584 
L 414.72 307.584 
L 414.72 41.472 
L 57.6 41.472 
z
" style="fill: #ffffff"/>
   </g>
   <g id="matplotlib.axis_1">
    <g id="xtick_1">
     <g id="line2d_1">
      <path d="M 73.832727 307.584 
L 73.832727 41.472 
" clip-path="url(#p2a8c856d32)" style="fill: none; stroke: #b0b0b0; stroke-width: 0.8; stroke-linecap: square"/>
     </g>
     <g id="line2d_2">
      <defs>
       <path id="m09aa8d26b7" d="M 0 0 
L 0 3.5 
" style="stroke: #000000; stroke-width: 0.8"/>
      </defs>
      <g>
       <use xlink:href="#m09aa8d26b7" x="73.832727" y="307.584" style="stroke: #000000; stroke-width: 0.8"/>
      </g>
     </g>
     <g id="text_1">
      <!-- 0 -->
      <g transform="translate(70.651477 322.182437) scale(0.1 -0.1)">
       <defs>
        <path id="DejaVuSans-30" d="M 2034 4250 
Q 1547 4250 1301 3770 
Q 1056 3291 1056 2328 
Q 1056 1369 1301 889 
Q 1547 409 2034 409 
Q 2525 409 2770 889 
Q 3016 1369 3016 2328 
Q 3016 3291 2770 3770 
Q 2525 4250 2034 4250 
z
M 2034 4750 
Q 2819 4750 3233 4129 
Q 3647 3509 3647 2328 
Q 3647 1150 3233 529 
Q 2819 -91 2034 -91 
Q 1250 -91 836 529 
Q 422 1150 422 2328 
Q 422 3509 836 4129 
Q 1250 4750 2034 4750 
z
" transform="scale(0.015625)"/>
       </defs>
       <use xlink:href="#DejaVuSans-30"/>
      </g>
     </g>
    </g>
    <g id="xtick_2">
     <g id="line2d_3">
      <path d="M 138.717958 307.584 
L 138.717958 41.472 
" clip-path="url(#p2a8c856d32)" style="fill: none; stroke: #b0b0b0; stroke-width: 0.8; stroke-linecap: square"/>
     </g>
     <g id="line2d_4">
      <g>
       <use xlink:href="#m09aa8d26b7" x="138.717958" y="307.584" style="stroke: #000000; stroke-width: 0.8"/>
      </g>
     </g>
     <g id="text_2">
      <!-- 1 -->
      <g transform="translate(135.536708 322.182437) scale(0.1 -0.1)">
       <defs>
        <path id="DejaVuSans-31" d="M 794 531 
L 1825 531 
L 1825 4091 
L 703 3866 
L 703 4441 
L 1819 4666 
L 2450 4666 
L 2450 531 
L 3481 531 
L 3481 0 
L 794 0 
L 794 531 
z
" transform="scale(0.015625)"/>
       </defs>
       <use xlink:href="#DejaVuSans-31"/>
      </g>
     </g>
    </g>
    <g id="xtick_3">
     <g id="line2d_5">
      <path d="M 203.603188 307.584 
L 203.603188 41.472 
" clip-path="url(#p2a8c856d32)" style="fill: none; stroke: #b0b0b0; stroke-width: 0.8; stroke-linecap: square"/>
     </g>
     <g id="line2d_6">
      <g>
       <use xlink:href="#m09aa8d26b7" x="203.603188" y="307.584" style="stroke: #000000; stroke-width: 0.8"/>
      </g>
     </g>
     <g id="text_3">
      <!-- 2 -->
      <g transform="translate(200.421938 322.182437) scale(0.1 -0.1)">
       <defs>
        <path id="DejaVuSans-32" d="M 1228 531 
L 3431 531 
L 3431 0 
L 469 0 
L 469 531 
Q 828 903 1448 1529 
Q 2069 2156 2228 2338 
Q 2531 2678 2651 2914 
Q 2772 3150 2772 3378 
Q 2772 3750 2511 3984 
Q 2250 4219 1831 4219 
Q 1534 4219 1204 4116 
Q 875 4013 500 3803 
L 500 4441 
Q 881 4594 1212 4672 
Q 1544 4750 1819 4750 
Q 2544 4750 2975 4387 
Q 3406 4025 3406 3419 
Q 3406 3131 3298 2873 
Q 3191 2616 2906 2266 
Q 2828 2175 2409 1742 
Q 1991 1309 1228 531 
z
" transform="scale(0.015625)"/>
       </defs>
       <use xlink:href="#DejaVuSans-32"/>
      </g>
     </g>
    </g>
    <g id="xtick_4">
     <g id="line2d_7">
      <path d="M 268.488418 307.584 
L 268.488418 41.472 
" clip-path="url(#p2a8c856d32)" style="fill: none; stroke: #b0b0b0; stroke-width: 0.8; stroke-linecap: square"/>
     </g>
     <g id="line2d_8">
      <g>
       <use xlink:href="#m09aa8d26b7" x="268.488418" y="307.584" style="stroke: #000000; stroke-width: 0.8"/>
      </g>
     </g>
     <g id="text_4">
      <!-- 3 -->
      <g transform="translate(265.307168 322.182437) scale(0.1 -0.1)">
       <defs>
        <path id="DejaVuSans-33" d="M 2597 2516 
Q 3050 2419 3304 2112 
Q 3559 1806 3559 1356 
Q 3559 666 3084 287 
Q 2609 -91 1734 -91 
Q 1441 -91 1130 -33 
Q 819 25 488 141 
L 488 750 
Q 750 597 1062 519 
Q 1375 441 1716 441 
Q 2309 441 2620 675 
Q 2931 909 2931 1356 
Q 2931 1769 2642 2001 
Q 2353 2234 1838 2234 
L 1294 2234 
L 1294 2753 
L 1863 2753 
Q 2328 2753 2575 2939 
Q 2822 3125 2822 3475 
Q 2822 3834 2567 4026 
Q 2313 4219 1838 4219 
Q 1578 4219 1281 4162 
Q 984 4106 628 3988 
L 628 4550 
Q 988 4650 1302 4700 
Q 1616 4750 1894 4750 
Q 2613 4750 3031 4423 
Q 3450 4097 3450 3541 
Q 3450 3153 3228 2886 
Q 3006 2619 2597 2516 
z
" transform="scale(0.015625)"/>
       </defs>
       <use xlink:href="#DejaVuSans-33"/>
      </g>
     </g>
    </g>
    <g id="xtick_5">
     <g id="line2d_9">
      <path d="M 333.373648 307.584 
L 333.373648 41.472 
" clip-path="url(#p2a8c856d32)" style="fill: none; stroke: #b0b0b0; stroke-width: 0.8; stroke-linecap: square"/>
     </g>
     <g id="line2d_10">
      <g>
       <use xlink:href="#m09aa8d26b7" x="333.373648" y="307.584" style="stroke: #000000; stroke-width: 0.8"/>
      </g>
     </g>
     <g id="text_5">
      <!-- 4 -->
      <g transform="translate(330.192398 322.182437) scale(0.1 -0.1)">
       <defs>
        <path id="DejaVuSans-34" d="M 2419 4116 
L 825 1625 
L 2419 1625 
L 2419 4116 
z
M 2253 4666 
L 3047 4666 
L 3047 1625 
L 3713 1625 
L 3713 1100 
L 3047 1100 
L 3047 0 
L 2419 0 
L 2419 1100 
L 313 1100 
L 313 1709 
L 2253 4666 
z
" transform="scale(0.015625)"/>
       </defs>
       <use xlink:href="#DejaVuSans-34"/>
      </g>
     </g>
    </g>
    <g id="xtick_6">
     <g id="line2d_11">
      <path d="M 398.258879 307.584 
L 398.258879 41.472 
" clip-path="url(#p2a8c856d32)" style="fill: none; stroke: #b0b0b0; stroke-width: 0.8; stroke-linecap: square"/>
     </g>
     <g id="line2d_12">
      <g>
       <use xlink:href="#m09aa8d26b7" x="398.258879" y="307.584" style="stroke: #000000; stroke-width: 0.8"/>
      </g>
     </g>
     <g id="text_6">
      <!-- 5 -->
      <g transform="translate(395.077629 322.182437) scale(0.1 -0.1)">
       <defs>
        <path id="DejaVuSans-35" d="M 691 4666 
L 3169 4666 
L 3169 4134 
L 1269 4134 
L 1269 2991 
Q 1406 3038 1543 3061 
Q 1681 3084 1819 3084 
Q 2600 3084 3056 2656 
Q 3513 2228 3513 1497 
Q 3513 744 3044 326 
Q 2575 -91 1722 -91 
Q 1428 -91 1123 -41 
Q 819 9 494 109 
L 494 744 
Q 775 591 1075 516 
Q 1375 441 1709 441 
Q 2250 441 2565 725 
Q 2881 1009 2881 1497 
Q 2881 1984 2565 2268 
Q 2250 2553 1709 2553 
Q 1456 2553 1204 2497 
Q 953 2441 691 2322 
L 691 4666 
z
" transform="scale(0.015625)"/>
       </defs>
       <use xlink:href="#DejaVuSans-35"/>
      </g>
     </g>
    </g>
    <g id="text_7">
     <!-- Temps [μs] -->
     <g transform="translate(208.95375 335.860562) scale(0.1 -0.1)">
      <defs>
       <path id="DejaVuSans-54" d="M -19 4666 
L 3928 4666 
L 3928 4134 
L 2272 4134 
L 2272 0 
L 1638 0 
L 1638 4134 
L -19 4134 
L -19 4666 
z
" transform="scale(0.015625)"/>
       <path id="DejaVuSans-65" d="M 3597 1894 
L 3597 1613 
L 953 1613 
Q 991 1019 1311 708 
Q 1631 397 2203 397 
Q 2534 397 2845 478 
Q 3156 559 3463 722 
L 3463 178 
Q 3153 47 2828 -22 
Q 2503 -91 2169 -91 
Q 1331 -91 842 396 
Q 353 884 353 1716 
Q 353 2575 817 3079 
Q 1281 3584 2069 3584 
Q 2775 3584 3186 3129 
Q 3597 2675 3597 1894 
z
M 3022 2063 
Q 3016 2534 2758 2815 
Q 2500 3097 2075 3097 
Q 1594 3097 1305 2825 
Q 1016 2553 972 2059 
L 3022 2063 
z
" transform="scale(0.015625)"/>
       <path id="DejaVuSans-6d" d="M 3328 2828 
Q 3544 3216 3844 3400 
Q 4144 3584 4550 3584 
Q 5097 3584 5394 3201 
Q 5691 2819 5691 2113 
L 5691 0 
L 5113 0 
L 5113 2094 
Q 5113 2597 4934 2840 
Q 4756 3084 4391 3084 
Q 3944 3084 3684 2787 
Q 3425 2491 3425 1978 
L 3425 0 
L 2847 0 
L 2847 2094 
Q 2847 2600 2669 2842 
Q 2491 3084 2119 3084 
Q 1678 3084 1418 2786 
Q 1159 2488 1159 1978 
L 1159 0 
L 581 0 
L 581 3500 
L 1159 3500 
L 1159 2956 
Q 1356 3278 1631 3431 
Q 1906 3584 2284 3584 
Q 2666 3584 2933 3390 
Q 3200 3197 3328 2828 
z
" transform="scale(0.015625)"/>
       <path id="DejaVuSans-70" d="M 1159 525 
L 1159 -1331 
L 581 -1331 
L 581 3500 
L 1159 3500 
L 1159 2969 
Q 1341 3281 1617 3432 
Q 1894 3584 2278 3584 
Q 2916 3584 3314 3078 
Q 3713 2572 3713 1747 
Q 3713 922 3314 415 
Q 2916 -91 2278 -91 
Q 1894 -91 1617 61 
Q 1341 213 1159 525 
z
M 3116 1747 
Q 3116 2381 2855 2742 
Q 2594 3103 2138 3103 
Q 1681 3103 1420 2742 
Q 1159 2381 1159 1747 
Q 1159 1113 1420 752 
Q 1681 391 2138 391 
Q 2594 391 2855 752 
Q 3116 1113 3116 1747 
z
" transform="scale(0.015625)"/>
       <path id="DejaVuSans-73" d="M 2834 3397 
L 2834 2853 
Q 2591 2978 2328 3040 
Q 2066 3103 1784 3103 
Q 1356 3103 1142 2972 
Q 928 2841 928 2578 
Q 928 2378 1081 2264 
Q 1234 2150 1697 2047 
L 1894 2003 
Q 2506 1872 2764 1633 
Q 3022 1394 3022 966 
Q 3022 478 2636 193 
Q 2250 -91 1575 -91 
Q 1294 -91 989 -36 
Q 684 19 347 128 
L 347 722 
Q 666 556 975 473 
Q 1284 391 1588 391 
Q 1994 391 2212 530 
Q 2431 669 2431 922 
Q 2431 1156 2273 1281 
Q 2116 1406 1581 1522 
L 1381 1569 
Q 847 1681 609 1914 
Q 372 2147 372 2553 
Q 372 3047 722 3315 
Q 1072 3584 1716 3584 
Q 2034 3584 2315 3537 
Q 2597 3491 2834 3397 
z
" transform="scale(0.015625)"/>
       <path id="DejaVuSans-20" transform="scale(0.015625)"/>
       <path id="DejaVuSans-5b" d="M 550 4863 
L 1875 4863 
L 1875 4416 
L 1125 4416 
L 1125 -397 
L 1875 -397 
L 1875 -844 
L 550 -844 
L 550 4863 
z
" transform="scale(0.015625)"/>
       <path id="DejaVuSans-3bc" d="M 544 -1331 
L 544 3500 
L 1119 3500 
L 1119 1325 
Q 1119 872 1334 640 
Q 1550 409 1972 409 
Q 2434 409 2667 671 
Q 2900 934 2900 1459 
L 2900 3500 
L 3475 3500 
L 3475 806 
Q 3475 619 3529 530 
Q 3584 441 3700 441 
Q 3728 441 3778 458 
Q 3828 475 3916 513 
L 3916 50 
Q 3788 -22 3673 -56 
Q 3559 -91 3450 -91 
Q 3234 -91 3106 31 
Q 2978 153 2931 403 
Q 2775 156 2548 32 
Q 2322 -91 2016 -91 
Q 1697 -91 1473 31 
Q 1250 153 1119 397 
L 1119 -1331 
L 544 -1331 
z
" transform="scale(0.015625)"/>
       <path id="DejaVuSans-5d" d="M 1947 4863 
L 1947 -844 
L 622 -844 
L 622 -397 
L 1369 -397 
L 1369 4416 
L 622 4416 
L 622 4863 
L 1947 4863 
z
" transform="scale(0.015625)"/>
      </defs>
      <use xlink:href="#DejaVuSans-54"/>
      <use xlink:href="#DejaVuSans-65" x="44.083984"/>
      <use xlink:href="#DejaVuSans-6d" x="105.607422"/>
      <use xlink:href="#DejaVuSans-70" x="203.019531"/>
      <use xlink:href="#DejaVuSans-73" x="266.496094"/>
      <use xlink:href="#DejaVuSans-20" x="318.595703"/>
      <use xlink:href="#DejaVuSans-5b" x="350.382812"/>
      <use xlink:href="#DejaVuSans-3bc" x="389.396484"/>
      <use xlink:href="#DejaVuSans-73" x="453.019531"/>
      <use xlink:href="#DejaVuSans-5d" x="505.119141"/>
     </g>
    </g>
   </g>
   <g id="matplotlib.axis_2">
    <g id="ytick_1">
     <g id="line2d_13">
      <path d="M 57.6 307.584 
L 414.72 307.584 
" clip-path="url(#p2a8c856d32)" style="fill: none; stroke: #b0b0b0; stroke-width: 0.8; stroke-linecap: square"/>
     </g>
     <g id="line2d_14">
      <defs>
       <path id="mae4c4439dc" d="M 0 0 
L -3.5 0 
" style="stroke: #000000; stroke-width: 0.8"/>
      </defs>
      <g>
       <use xlink:href="#mae4c4439dc" x="57.6" y="307.584" style="stroke: #000000; stroke-width: 0.8"/>
      </g>
     </g>
     <g id="text_8">
      <!-- 0 -->
      <g transform="translate(44.2375 311.383219) scale(0.1 -0.1)">
       <use xlink:href="#DejaVuSans-30"/>
      </g>
     </g>
    </g>
    <g id="ytick_2">
     <g id="line2d_15">
      <path d="M 57.6 266.643692 
L 414.72 266.643692 
" clip-path="url(#p2a8c856d32)" style="fill: none; stroke: #b0b0b0; stroke-width: 0.8; stroke-linecap: square"/>
     </g>
     <g id="line2d_16">
      <g>
       <use xlink:href="#mae4c4439dc" x="57.6" y="266.643692" style="stroke: #000000; stroke-width: 0.8"/>
      </g>
     </g>
     <g id="text_9">
      <!-- 1 -->
      <g transform="translate(44.2375 270.442911) scale(0.1 -0.1)">
       <use xlink:href="#DejaVuSans-31"/>
      </g>
     </g>
    </g>
    <g id="ytick_3">
     <g id="line2d_17">
      <path d="M 57.6 225.703385 
L 414.72 225.703385 
" clip-path="url(#p2a8c856d32)" style="fill: none; stroke: #b0b0b0; stroke-width: 0.8; stroke-linecap: square"/>
     </g>
     <g id="line2d_18">
      <g>
       <use xlink:href="#mae4c4439dc" x="57.6" y="225.703385" style="stroke: #000000; stroke-width: 0.8"/>
      </g>
     </g>
     <g id="text_10">
      <!-- 2 -->
      <g transform="translate(44.2375 229.502603) scale(0.1 -0.1)">
       <use xlink:href="#DejaVuSans-32"/>
      </g>
     </g>
    </g>
    <g id="ytick_4">
     <g id="line2d_19">
      <path d="M 57.6 184.763077 
L 414.72 184.763077 
" clip-path="url(#p2a8c856d32)" style="fill: none; stroke: #b0b0b0; stroke-width: 0.8; stroke-linecap: square"/>
     </g>
     <g id="line2d_20">
      <g>
       <use xlink:href="#mae4c4439dc" x="57.6" y="184.763077" style="stroke: #000000; stroke-width: 0.8"/>
      </g>
     </g>
     <g id="text_11">
      <!-- 3 -->
      <g transform="translate(44.2375 188.562296) scale(0.1 -0.1)">
       <use xlink:href="#DejaVuSans-33"/>
      </g>
     </g>
    </g>
    <g id="ytick_5">
     <g id="line2d_21">
      <path d="M 57.6 143.822769 
L 414.72 143.822769 
" clip-path="url(#p2a8c856d32)" style="fill: none; stroke: #b0b0b0; stroke-width: 0.8; stroke-linecap: square"/>
     </g>
     <g id="line2d_22">
      <g>
       <use xlink:href="#mae4c4439dc" x="57.6" y="143.822769" style="stroke: #000000; stroke-width: 0.8"/>
      </g>
     </g>
     <g id="text_12">
      <!-- 4 -->
      <g transform="translate(44.2375 147.621988) scale(0.1 -0.1)">
       <use xlink:href="#DejaVuSans-34"/>
      </g>
     </g>
    </g>
    <g id="ytick_6">
     <g id="line2d_23">
      <path d="M 57.6 102.882462 
L 414.72 102.882462 
" clip-path="url(#p2a8c856d32)" style="fill: none; stroke: #b0b0b0; stroke-width: 0.8; stroke-linecap: square"/>
     </g>
     <g id="line2d_24">
      <g>
       <use xlink:href="#mae4c4439dc" x="57.6" y="102.882462" style="stroke: #000000; stroke-width: 0.8"/>
      </g>
     </g>
     <g id="text_13">
      <!-- 5 -->
      <g transform="translate(44.2375 106.68168) scale(0.1 -0.1)">
       <use xlink:href="#DejaVuSans-35"/>
      </g>
     </g>
    </g>
    <g id="ytick_7">
     <g id="line2d_25">
      <path d="M 57.6 61.942154 
L 414.72 61.942154 
" clip-path="url(#p2a8c856d32)" style="fill: none; stroke: #b0b0b0; stroke-width: 0.8; stroke-linecap: square"/>
     </g>
     <g id="line2d_26">
      <g>
       <use xlink:href="#mae4c4439dc" x="57.6" y="61.942154" style="stroke: #000000; stroke-width: 0.8"/>
      </g>
     </g>
     <g id="text_14">
      <!-- 6 -->
      <g transform="translate(44.2375 65.741373) scale(0.1 -0.1)">
       <defs>
        <path id="DejaVuSans-36" d="M 2113 2584 
Q 1688 2584 1439 2293 
Q 1191 2003 1191 1497 
Q 1191 994 1439 701 
Q 1688 409 2113 409 
Q 2538 409 2786 701 
Q 3034 994 3034 1497 
Q 3034 2003 2786 2293 
Q 2538 2584 2113 2584 
z
M 3366 4563 
L 3366 3988 
Q 3128 4100 2886 4159 
Q 2644 4219 2406 4219 
Q 1781 4219 1451 3797 
Q 1122 3375 1075 2522 
Q 1259 2794 1537 2939 
Q 1816 3084 2150 3084 
Q 2853 3084 3261 2657 
Q 3669 2231 3669 1497 
Q 3669 778 3244 343 
Q 2819 -91 2113 -91 
Q 1303 -91 875 529 
Q 447 1150 447 2328 
Q 447 3434 972 4092 
Q 1497 4750 2381 4750 
Q 2619 4750 2861 4703 
Q 3103 4656 3366 4563 
z
" transform="scale(0.015625)"/>
       </defs>
       <use xlink:href="#DejaVuSans-36"/>
      </g>
     </g>
    </g>
    <g id="text_15">
     <!-- Tension [V] -->
     <g transform="translate(38.157812 202.110031) rotate(-90) scale(0.1 -0.1)">
      <defs>
       <path id="DejaVuSans-6e" d="M 3513 2113 
L 3513 0 
L 2938 0 
L 2938 2094 
Q 2938 2591 2744 2837 
Q 2550 3084 2163 3084 
Q 1697 3084 1428 2787 
Q 1159 2491 1159 1978 
L 1159 0 
L 581 0 
L 581 3500 
L 1159 3500 
L 1159 2956 
Q 1366 3272 1645 3428 
Q 1925 3584 2291 3584 
Q 2894 3584 3203 3211 
Q 3513 2838 3513 2113 
z
" transform="scale(0.015625)"/>
       <path id="DejaVuSans-69" d="M 603 3500 
L 1178 3500 
L 1178 0 
L 603 0 
L 603 3500 
z
M 603 4863 
L 1178 4863 
L 1178 4134 
L 603 4134 
L 603 4863 
z
" transform="scale(0.015625)"/>
       <path id="DejaVuSans-6f" d="M 1959 3097 
Q 1497 3097 1228 2736 
Q 959 2375 959 1747 
Q 959 1119 1226 758 
Q 1494 397 1959 397 
Q 2419 397 2687 759 
Q 2956 1122 2956 1747 
Q 2956 2369 2687 2733 
Q 2419 3097 1959 3097 
z
M 1959 3584 
Q 2709 3584 3137 3096 
Q 3566 2609 3566 1747 
Q 3566 888 3137 398 
Q 2709 -91 1959 -91 
Q 1206 -91 779 398 
Q 353 888 353 1747 
Q 353 2609 779 3096 
Q 1206 3584 1959 3584 
z
" transform="scale(0.015625)"/>
       <path id="DejaVuSans-56" d="M 1831 0 
L 50 4666 
L 709 4666 
L 2188 738 
L 3669 4666 
L 4325 4666 
L 2547 0 
L 1831 0 
z
" transform="scale(0.015625)"/>
      </defs>
      <use xlink:href="#DejaVuSans-54"/>
      <use xlink:href="#DejaVuSans-65" x="44.083984"/>
      <use xlink:href="#DejaVuSans-6e" x="105.607422"/>
      <use xlink:href="#DejaVuSans-73" x="168.986328"/>
      <use xlink:href="#DejaVuSans-69" x="221.085938"/>
      <use xlink:href="#DejaVuSans-6f" x="248.869141"/>
      <use xlink:href="#DejaVuSans-6e" x="310.050781"/>
      <use xlink:href="#DejaVuSans-20" x="373.429688"/>
      <use xlink:href="#DejaVuSans-5b" x="405.216797"/>
      <use xlink:href="#DejaVuSans-56" x="444.230469"/>
      <use xlink:href="#DejaVuSans-5d" x="512.638672"/>
     </g>
    </g>
   </g>
   <g id="line2d_27">
    <path d="M 73.832727 305.216316 
L 74.414099 305.216316 
L 74.497152 307.046742 
L 74.663258 305.216316 
L 75.493789 305.216316 
L 75.576842 307.046742 
L 75.742948 305.216316 
L 77.237904 305.216316 
L 77.320957 307.046742 
L 77.487063 305.216316 
L 77.819276 305.216316 
L 77.985382 307.046742 
L 78.068435 305.216316 
L 78.151488 307.046742 
L 78.317594 305.216316 
L 78.815913 305.216316 
L 78.898966 307.046742 
L 79.065072 305.216316 
L 79.148125 305.216316 
L 79.231178 307.046742 
L 79.397285 305.216316 
L 79.480338 305.216316 
L 79.563391 307.046742 
L 79.646444 305.216316 
L 79.729497 307.046742 
L 79.895603 305.216316 
L 80.643081 305.216316 
L 80.726134 303.385891 
L 80.89224 107.511623 
L 81.1414 107.511623 
L 81.224453 109.342064 
L 81.307506 107.511623 
L 81.390559 109.342064 
L 81.473612 107.511623 
L 81.639718 109.342064 
L 82.054984 109.342064 
L 82.138037 107.511623 
L 82.304143 109.342064 
L 82.636355 109.342064 
L 82.719408 107.511623 
L 82.885515 109.342064 
L 83.882152 109.342064 
L 83.965205 107.511623 
L 84.131311 109.342064 
L 84.214364 107.511623 
L 84.38047 109.342064 
L 85.875426 109.342064 
L 85.958479 107.511623 
L 86.124585 109.342064 
L 86.539851 109.342064 
L 86.705957 107.511623 
L 86.872063 109.342064 
L 86.955116 107.511623 
L 87.121222 109.342064 
L 87.204276 107.511623 
L 87.287329 109.342064 
L 87.453435 107.511623 
L 92.851886 107.511623 
L 92.934939 105.681182 
L 93.101045 107.511623 
L 94.346842 107.511623 
L 94.429895 105.681182 
L 94.596001 107.511623 
L 101.904673 107.511623 
L 101.987726 105.681182 
L 102.153833 107.511623 
L 103.814894 107.511623 
L 103.897948 105.681182 
L 104.064054 107.511623 
L 105.143744 107.511623 
L 105.226797 105.681182 
L 105.30985 107.511623 
L 105.392903 105.681182 
L 105.559009 107.511623 
L 106.057328 107.511623 
L 106.140381 105.681182 
L 106.223434 107.511623 
L 106.306487 105.681182 
L 106.472594 107.511623 
L 106.555647 107.511623 
L 106.6387 105.681182 
L 106.804806 107.511623 
L 106.887859 105.681182 
L 106.970912 107.511623 
L 107.053965 105.681182 
L 107.220071 107.511623 
L 107.884496 107.511623 
L 107.967549 105.681182 
L 108.050602 107.511623 
L 108.133655 105.681182 
L 108.299762 107.511623 
L 108.465868 105.681182 
L 108.631974 107.511623 
L 108.79808 107.511623 
L 108.964186 105.681182 
L 109.130293 107.511623 
L 109.545558 107.511623 
L 109.628611 105.681182 
L 109.794717 107.511623 
L 110.376089 107.511623 
L 110.542195 105.681182 
L 110.625248 105.681182 
L 110.708301 107.511623 
L 110.874408 105.681182 
L 110.957461 105.681182 
L 111.040514 107.511623 
L 111.123567 105.681182 
L 111.289673 107.511623 
L 112.369363 107.511623 
L 112.452416 105.681182 
L 112.618523 107.511623 
L 112.784629 107.511623 
L 112.867682 105.681182 
L 112.950735 107.511623 
L 113.116841 105.681182 
L 113.199894 105.681182 
L 113.366 107.511623 
L 113.449053 105.681182 
L 113.61516 107.511623 
L 113.698213 107.511623 
L 113.781266 105.681182 
L 113.947372 107.511623 
L 114.279584 107.511623 
L 114.362638 105.681182 
L 114.445691 107.511623 
L 114.528744 105.681182 
L 114.69485 107.511623 
L 115.359275 107.511623 
L 115.442328 105.681182 
L 115.608434 107.511623 
L 115.691487 105.681182 
L 115.857593 107.511623 
L 116.023699 107.511623 
L 116.189806 105.681182 
L 116.355912 105.681182 
L 116.522018 107.511623 
L 116.771177 107.511623 
L 116.85423 105.681182 
L 116.937283 107.511623 
L 117.10339 105.681182 
L 117.269496 105.681182 
L 117.435602 107.511623 
L 117.518655 107.511623 
L 117.684761 105.681182 
L 117.767814 107.511623 
L 117.850867 105.681182 
L 118.016974 107.511623 
L 118.18308 107.511623 
L 118.266133 105.681182 
L 118.349186 107.511623 
L 118.515292 105.681182 
L 118.681398 107.511623 
L 118.847505 105.681182 
L 118.930558 105.681182 
L 119.013611 107.511623 
L 119.179717 105.681182 
L 119.345823 105.681182 
L 119.428876 107.511623 
L 119.511929 105.681182 
L 119.678036 109.342064 
L 119.761089 307.046742 
L 119.844142 303.385891 
L 120.010248 305.216316 
L 120.176354 305.216316 
L 120.259407 303.385891 
L 120.425513 305.216316 
L 120.508567 303.385891 
L 120.674673 305.216316 
L 120.840779 303.385891 
L 121.006885 303.385891 
L 121.089938 305.216316 
L 121.256044 303.385891 
L 121.339097 303.385891 
L 121.505204 305.216316 
L 121.67131 303.385891 
L 122.169628 303.385891 
L 122.252682 305.216316 
L 122.418788 303.385891 
L 122.501841 305.216316 
L 122.667947 303.385891 
L 122.751 305.216316 
L 122.834053 303.385891 
L 122.917106 305.216316 
L 123.083212 303.385891 
L 123.249319 305.216316 
L 123.415425 303.385891 
L 123.498478 303.385891 
L 123.581531 305.216316 
L 123.747637 303.385891 
L 123.913743 305.216316 
L 124.07985 305.216316 
L 124.162903 303.385891 
L 124.329009 305.216316 
L 124.495115 303.385891 
L 124.661221 305.216316 
L 125.076487 305.216316 
L 125.15954 303.385891 
L 125.325646 305.216316 
L 125.740911 305.216316 
L 125.823965 303.385891 
L 125.990071 305.216316 
L 126.737549 305.216316 
L 126.820602 303.385891 
L 126.986708 305.216316 
L 127.31892 305.216316 
L 127.401973 303.385891 
L 127.56808 305.216316 
L 132.468212 305.216316 
L 132.551265 303.385891 
L 132.717371 305.216316 
L 133.547902 305.216316 
L 133.630955 303.385891 
L 133.797062 305.216316 
L 149.57715 305.216316 
L 149.660203 307.046742 
L 149.826309 305.216316 
L 154.726441 305.216316 
L 154.809494 307.046742 
L 154.9756 305.216316 
L 155.058653 307.046742 
L 155.224759 305.216316 
L 155.473919 305.216316 
L 155.556972 307.046742 
L 155.723078 305.216316 
L 155.806131 305.216316 
L 155.889184 307.046742 
L 155.972237 305.216316 
L 156.05529 307.046742 
L 156.221397 305.216316 
L 157.633299 305.216316 
L 157.716352 307.046742 
L 157.882459 305.216316 
L 158.380777 305.216316 
L 158.546883 107.511623 
L 158.712989 109.342064 
L 158.796043 109.342064 
L 158.879096 107.511623 
L 159.045202 109.342064 
L 159.128255 109.342064 
L 159.294361 107.511623 
L 159.377414 109.342064 
L 159.54352 107.511623 
L 159.709627 109.342064 
L 163.03175 109.342064 
L 163.114803 107.511623 
L 163.28091 109.342064 
L 163.779228 109.342064 
L 163.862281 107.511623 
L 164.028388 109.342064 
L 164.692812 109.342064 
L 164.775865 107.511623 
L 164.941972 109.342064 
L 165.108078 107.511623 
L 165.191131 109.342064 
L 165.357237 107.511623 
L 165.689449 107.511623 
L 165.772503 109.342064 
L 165.938609 107.511623 
L 166.270821 107.511623 
L 166.436927 109.342064 
L 166.603033 107.511623 
L 166.686087 109.342064 
L 166.852193 107.511623 
L 179.39321 107.511623 
L 179.476263 105.681182 
L 179.642369 107.511623 
L 184.459449 107.511623 
L 184.542502 105.681182 
L 184.708608 107.511623 
L 184.791661 105.681182 
L 184.874714 107.511623 
L 184.957767 105.681182 
L 185.123874 107.511623 
L 185.954405 107.511623 
L 186.120511 105.681182 
L 186.286617 107.511623 
L 186.452723 107.511623 
L 186.535776 105.681182 
L 186.701882 107.511623 
L 187.532413 107.511623 
L 187.615466 105.681182 
L 187.781573 107.511623 
L 188.196838 107.511623 
L 188.279891 105.681182 
L 188.445997 107.511623 
L 188.77821 107.511623 
L 188.861263 105.681182 
L 189.027369 107.511623 
L 189.110422 105.681182 
L 189.193475 107.511623 
L 189.359581 105.681182 
L 189.525688 105.681182 
L 189.691794 107.511623 
L 189.774847 105.681182 
L 189.8579 107.511623 
L 189.940953 105.681182 
L 190.107059 107.511623 
L 190.190112 107.511623 
L 190.356219 105.681182 
L 190.522325 107.511623 
L 190.605378 107.511623 
L 190.771484 105.681182 
L 190.93759 107.511623 
L 191.352856 107.511623 
L 191.435909 105.681182 
L 191.602015 107.511623 
L 191.685068 107.511623 
L 191.768121 105.681182 
L 191.934227 107.511623 
L 192.01728 107.511623 
L 192.100334 105.681182 
L 192.183387 107.511623 
L 192.26644 105.681182 
L 192.432546 107.511623 
L 192.598652 107.511623 
L 192.681705 105.681182 
L 192.847811 107.511623 
L 192.930865 107.511623 
L 193.013918 105.681182 
L 193.096971 107.511623 
L 193.263077 105.681182 
L 193.429183 107.511623 
L 193.512236 105.681182 
L 193.595289 107.511623 
L 193.761395 105.681182 
L 193.844449 105.681182 
L 194.010555 107.511623 
L 194.176661 107.511623 
L 194.259714 105.681182 
L 194.42582 107.511623 
L 194.508873 107.511623 
L 194.591926 105.681182 
L 194.674979 107.511623 
L 194.758033 105.681182 
L 194.924139 107.511623 
L 195.090245 105.681182 
L 195.256351 107.511623 
L 195.339404 105.681182 
L 195.50551 107.511623 
L 195.671617 107.511623 
L 195.75467 105.681182 
L 195.837723 107.511623 
L 195.920776 105.681182 
L 196.086882 107.511623 
L 196.252988 107.511623 
L 196.336041 105.681182 
L 196.419094 107.511623 
L 196.585201 105.681182 
L 196.668254 105.681182 
L 196.83436 107.511623 
L 197.000466 105.681182 
L 197.083519 105.681182 
L 197.249625 107.511623 
L 197.332679 107.511623 
L 197.498785 305.216316 
L 197.664891 305.216316 
L 197.830997 303.385891 
L 198.246263 303.385891 
L 198.329316 305.216316 
L 198.495422 303.385891 
L 198.578475 303.385891 
L 198.661528 305.216316 
L 198.744581 303.385891 
L 198.827634 305.216316 
L 198.99374 303.385891 
L 199.076794 305.216316 
L 199.2429 303.385891 
L 199.409006 305.216316 
L 199.492059 305.216316 
L 199.658165 303.385891 
L 199.824271 305.216316 
L 199.907324 305.216316 
L 200.073431 303.385891 
L 200.239537 303.385891 
L 200.32259 305.216316 
L 200.405643 303.385891 
L 200.488696 305.216316 
L 200.571749 303.385891 
L 200.654802 305.216316 
L 200.737855 303.385891 
L 200.903962 305.216316 
L 201.070068 303.385891 
L 201.153121 305.216316 
L 201.319227 303.385891 
L 201.40228 303.385891 
L 201.485333 305.216316 
L 201.651439 303.385891 
L 201.817546 305.216316 
L 203.146395 305.216316 
L 203.229448 303.385891 
L 203.395554 305.216316 
L 203.561661 305.216316 
L 203.727767 303.385891 
L 203.893873 305.216316 
L 207.132944 305.216316 
L 207.215997 303.385891 
L 207.382103 305.216316 
L 207.631262 305.216316 
L 207.714315 303.385891 
L 207.880422 305.216316 
L 207.963475 305.216316 
L 208.046528 303.385891 
L 208.212634 305.216316 
L 209.375377 305.216316 
L 209.45843 303.385891 
L 209.624537 305.216316 
L 227.14874 305.216316 
L 227.231793 307.046742 
L 227.314846 305.216316 
L 227.397899 307.046742 
L 227.564005 305.216316 
L 227.647058 307.046742 
L 227.813164 305.216316 
L 228.311483 305.216316 
L 228.394536 307.046742 
L 228.560642 305.216316 
L 229.142014 305.216316 
L 229.225067 307.046742 
L 229.391173 305.216316 
L 229.557279 305.216316 
L 229.640332 307.046742 
L 229.806439 305.216316 
L 230.63697 305.216316 
L 230.720023 307.046742 
L 230.886129 305.216316 
L 231.301394 305.216316 
L 231.384447 307.046742 
L 231.550554 305.216316 
L 231.633607 305.216316 
L 231.71666 307.046742 
L 231.882766 305.216316 
L 231.965819 307.046742 
L 232.131925 305.216316 
L 232.962456 305.216316 
L 233.045509 307.046742 
L 233.211615 305.216316 
L 234.1252 305.216316 
L 234.208253 307.046742 
L 234.374359 305.216316 
L 234.457412 305.216316 
L 234.540465 307.046742 
L 234.706571 305.216316 
L 234.95573 305.216316 
L 235.038784 307.046742 
L 235.20489 305.216316 
L 235.620155 305.216316 
L 235.703208 307.046742 
L 235.869314 305.216316 
L 236.035421 305.216316 
L 236.118474 246.636451 
L 236.28458 107.511623 
L 236.616792 107.511623 
L 236.782899 109.342064 
L 240.437235 109.342064 
L 240.520288 107.511623 
L 240.686394 109.342064 
L 241.018606 109.342064 
L 241.101659 107.511623 
L 241.267766 109.342064 
L 241.350819 109.342064 
L 241.433872 107.511623 
L 241.599978 109.342064 
L 241.683031 107.511623 
L 241.766084 109.342064 
L 241.849137 107.511623 
L 241.93219 109.342064 
L 242.015244 107.511623 
L 242.18135 109.342064 
L 242.264403 109.342064 
L 242.430509 107.511623 
L 242.596615 109.342064 
L 242.679668 107.511623 
L 242.845774 109.342064 
L 243.011881 107.511623 
L 243.177987 107.511623 
L 243.26104 109.342064 
L 243.427146 107.511623 
L 243.759358 107.511623 
L 243.842412 109.342064 
L 244.008518 107.511623 
L 244.091571 107.511623 
L 244.174624 109.342064 
L 244.34073 107.511623 
L 249.240863 107.511623 
L 249.323916 105.681182 
L 249.490022 107.511623 
L 255.968163 107.511623 
L 256.051217 105.681182 
L 256.217323 107.511623 
L 256.466482 107.511623 
L 256.549535 105.681182 
L 256.715641 107.511623 
L 259.705552 107.511623 
L 259.788605 105.681182 
L 259.954711 107.511623 
L 260.120818 107.511623 
L 260.203871 105.681182 
L 260.369977 107.511623 
L 260.702189 107.511623 
L 260.785242 105.681182 
L 260.951348 107.511623 
L 263.276835 107.511623 
L 263.359888 105.681182 
L 263.442941 107.511623 
L 263.525994 105.681182 
L 263.692101 107.511623 
L 264.024313 107.511623 
L 264.107366 105.681182 
L 264.273472 107.511623 
L 264.356525 107.511623 
L 264.439578 105.681182 
L 264.605685 107.511623 
L 264.854844 107.511623 
L 264.937897 105.681182 
L 265.104003 107.511623 
L 265.270109 107.511623 
L 265.353162 105.681182 
L 265.519269 107.511623 
L 265.602322 105.681182 
L 265.768428 107.511623 
L 265.934534 107.511623 
L 266.017587 105.681182 
L 266.10064 107.511623 
L 266.266747 105.681182 
L 266.3498 105.681182 
L 266.515906 107.511623 
L 266.682012 107.511623 
L 266.848118 105.681182 
L 267.014224 107.511623 
L 267.346437 107.511623 
L 267.42949 105.681182 
L 267.512543 107.511623 
L 267.595596 105.681182 
L 267.761702 107.511623 
L 267.927808 107.511623 
L 268.093915 105.681182 
L 268.260021 107.511623 
L 268.343074 105.681182 
L 268.50918 107.511623 
L 268.592233 107.511623 
L 268.675286 105.681182 
L 268.841392 107.511623 
L 268.924446 105.681182 
L 269.090552 107.511623 
L 269.256658 107.511623 
L 269.422764 105.681182 
L 269.505817 107.511623 
L 269.58887 105.681182 
L 269.671923 107.511623 
L 269.754977 105.681182 
L 269.83803 107.511623 
L 269.921083 105.681182 
L 270.004136 107.511623 
L 270.087189 105.681182 
L 270.253295 107.511623 
L 270.419401 105.681182 
L 270.502454 107.511623 
L 270.585507 105.681182 
L 270.751614 107.511623 
L 271.000773 107.511623 
L 271.083826 105.681182 
L 271.249932 107.511623 
L 271.332985 107.511623 
L 271.499091 105.681182 
L 271.665198 107.511623 
L 271.831304 105.681182 
L 271.99741 105.681182 
L 272.163516 107.511623 
L 272.329622 107.511623 
L 272.412676 105.681182 
L 272.495729 107.511623 
L 272.578782 105.681182 
L 272.744888 107.511623 
L 272.827941 107.511623 
L 272.910994 105.681182 
L 273.0771 107.511623 
L 273.160153 105.681182 
L 273.32626 107.511623 
L 273.492366 105.681182 
L 273.575419 105.681182 
L 273.658472 107.511623 
L 273.741525 105.681182 
L 273.907631 107.511623 
L 273.990684 107.511623 
L 274.156791 105.681182 
L 274.239844 107.511623 
L 274.322897 105.681182 
L 274.489003 107.511623 
L 274.987321 107.511623 
L 275.070375 134.974259 
L 275.236481 305.216316 
L 275.734799 305.216316 
L 275.900906 303.385891 
L 276.233118 303.385891 
L 276.316171 305.216316 
L 276.482277 303.385891 
L 276.56533 305.216316 
L 276.648383 303.385891 
L 276.81449 305.216316 
L 276.897543 305.216316 
L 276.980596 303.385891 
L 277.063649 305.216316 
L 277.229755 303.385891 
L 277.728074 303.385891 
L 277.811127 305.216316 
L 277.89418 303.385891 
L 278.060286 305.216316 
L 278.226392 305.216316 
L 278.309445 303.385891 
L 278.475551 305.216316 
L 278.558605 305.216316 
L 278.641658 303.385891 
L 278.807764 305.216316 
L 279.223029 305.216316 
L 279.306082 303.385891 
L 279.389135 305.216316 
L 279.472189 303.385891 
L 279.638295 305.216316 
L 279.804401 305.216316 
L 279.887454 303.385891 
L 279.970507 305.216316 
L 280.05356 303.385891 
L 280.219666 305.216316 
L 280.30272 305.216316 
L 280.468826 303.385891 
L 280.634932 305.216316 
L 282.379047 305.216316 
L 282.4621 303.385891 
L 282.628206 305.216316 
L 282.794312 305.216316 
L 282.877365 303.385891 
L 283.043472 305.216316 
L 283.126525 303.385891 
L 283.292631 305.216316 
L 283.707896 305.216316 
L 283.79095 303.385891 
L 283.957056 305.216316 
L 285.535065 305.216316 
L 285.618118 303.385891 
L 285.784224 305.216316 
L 301.065993 305.216316 
L 301.149046 307.046742 
L 301.315153 305.216316 
L 303.474533 305.216316 
L 303.557586 307.046742 
L 303.723692 305.216316 
L 304.720329 305.216316 
L 304.803382 307.046742 
L 304.969489 305.216316 
L 305.633913 305.216316 
L 305.716967 307.046742 
L 305.883073 305.216316 
L 307.128869 305.216316 
L 307.211922 307.046742 
L 307.378028 305.216316 
L 307.627188 305.216316 
L 307.710241 307.046742 
L 307.793294 305.216316 
L 307.876347 307.046742 
L 308.042453 305.216316 
L 308.208559 305.216316 
L 308.291612 307.046742 
L 308.457719 305.216316 
L 310.201834 305.216316 
L 310.284887 307.046742 
L 310.450993 305.216316 
L 311.198471 305.216316 
L 311.364577 307.046742 
L 311.530683 305.216316 
L 312.52732 305.216316 
L 312.610373 307.046742 
L 312.693426 305.216316 
L 312.77648 307.046742 
L 312.942586 305.216316 
L 313.440904 305.216316 
L 313.523957 307.046742 
L 313.773117 303.385891 
L 313.939223 107.511623 
L 314.022276 109.342064 
L 314.105329 107.511623 
L 314.188382 109.342064 
L 314.271435 107.511623 
L 314.437541 109.342064 
L 314.603648 107.511623 
L 314.686701 109.342064 
L 314.769754 107.511623 
L 314.93586 109.342064 
L 320.168205 109.342064 
L 320.334311 107.511623 
L 320.500417 107.511623 
L 320.58347 109.342064 
L 320.749577 107.511623 
L 320.83263 107.511623 
L 320.915683 109.342064 
L 320.998736 107.511623 
L 321.164842 109.342064 
L 321.330948 107.511623 
L 321.497055 107.511623 
L 321.580108 109.342064 
L 321.746214 107.511623 
L 335.283868 107.511623 
L 335.366921 105.681182 
L 335.533028 107.511623 
L 336.114399 107.511623 
L 336.280505 105.681182 
L 336.446612 107.511623 
L 337.775461 107.511623 
L 337.858514 105.681182 
L 338.02462 107.511623 
L 339.187364 107.511623 
L 339.270417 105.681182 
L 339.436523 107.511623 
L 340.184001 107.511623 
L 340.267054 105.681182 
L 340.43316 107.511623 
L 341.76201 107.511623 
L 341.845063 105.681182 
L 342.011169 107.511623 
L 342.177275 107.511623 
L 342.260328 105.681182 
L 342.426434 107.511623 
L 342.509488 105.681182 
L 342.675594 107.511623 
L 343.506125 107.511623 
L 343.589178 105.681182 
L 343.755284 107.511623 
L 343.838337 107.511623 
L 343.92139 105.681182 
L 344.087496 107.511623 
L 344.419709 107.511623 
L 344.585815 105.681182 
L 344.751921 107.511623 
L 345.167187 107.511623 
L 345.25024 105.681182 
L 345.333293 107.511623 
L 345.416346 105.681182 
L 345.582452 107.511623 
L 345.748558 105.681182 
L 345.914664 107.511623 
L 346.579089 107.511623 
L 346.662142 105.681182 
L 346.828248 107.511623 
L 346.911302 107.511623 
L 346.994355 105.681182 
L 347.160461 107.511623 
L 347.243514 107.511623 
L 347.326567 105.681182 
L 347.40962 107.511623 
L 347.492673 105.681182 
L 347.658779 107.511623 
L 347.907939 107.511623 
L 347.990992 105.681182 
L 348.157098 107.511623 
L 348.48931 107.511623 
L 348.655417 105.681182 
L 348.73847 107.511623 
L 348.904576 105.681182 
L 348.987629 105.681182 
L 349.070682 107.511623 
L 349.153735 105.681182 
L 349.236788 107.511623 
L 349.402894 105.681182 
L 349.569001 107.511623 
L 349.652054 105.681182 
L 349.81816 107.511623 
L 349.901213 105.681182 
L 350.067319 107.511623 
L 350.150372 107.511623 
L 350.233425 105.681182 
L 350.399532 107.511623 
L 350.814797 107.511623 
L 350.89785 105.681182 
L 351.063956 107.511623 
L 351.147009 107.511623 
L 351.230062 105.681182 
L 351.396169 107.511623 
L 351.479222 107.511623 
L 351.562275 105.681182 
L 351.645328 107.511623 
L 351.728381 105.681182 
L 351.894487 107.511623 
L 351.97754 107.511623 
L 352.143647 105.681182 
L 352.2267 107.511623 
L 352.309753 105.681182 
L 352.475859 107.511623 
L 352.558912 107.511623 
L 352.641965 105.681182 
L 352.725018 109.342064 
L 352.891124 305.216316 
L 353.140284 305.216316 
L 353.223337 303.385891 
L 353.30639 305.216316 
L 353.472496 303.385891 
L 353.555549 305.216316 
L 353.638602 303.385891 
L 353.804708 305.216316 
L 353.887761 305.216316 
L 353.970815 303.385891 
L 354.136921 305.216316 
L 354.303027 303.385891 
L 354.38608 303.385891 
L 354.552186 305.216316 
L 354.718292 303.385891 
L 354.884399 305.216316 
L 355.050505 303.385891 
L 355.216611 305.216316 
L 355.631876 305.216316 
L 355.71493 303.385891 
L 355.881036 305.216316 
L 356.047142 305.216316 
L 356.130195 303.385891 
L 356.213248 305.216316 
L 356.296301 303.385891 
L 356.462407 305.216316 
L 356.79462 305.216316 
L 356.960726 303.385891 
L 357.126832 305.216316 
L 357.209885 303.385891 
L 357.292938 305.216316 
L 357.375991 303.385891 
L 357.459045 305.216316 
L 357.542098 303.385891 
L 357.625151 305.216316 
L 357.791257 303.385891 
L 357.957363 305.216316 
L 358.289576 305.216316 
L 358.455682 303.385891 
L 358.621788 305.216316 
L 358.704841 305.216316 
L 358.787894 303.385891 
L 358.954 305.216316 
L 359.701478 305.216316 
L 359.784531 303.385891 
L 359.950637 305.216316 
L 360.448956 305.216316 
L 360.532009 303.385891 
L 360.698115 305.216316 
L 360.947275 305.216316 
L 361.030328 303.385891 
L 361.196434 305.216316 
L 361.36254 303.385891 
L 361.445593 303.385891 
L 361.611699 305.216316 
L 361.694752 305.216316 
L 361.777805 303.385891 
L 361.943912 305.216316 
L 362.359177 305.216316 
L 362.44223 303.385891 
L 362.608336 305.216316 
L 364.020239 305.216316 
L 364.103292 303.385891 
L 364.269398 305.216316 
L 379.302008 305.216316 
L 379.385061 307.046742 
L 379.551167 305.216316 
L 380.630857 305.216316 
L 380.71391 307.046742 
L 380.880017 305.216316 
L 381.212229 305.216316 
L 381.295282 307.046742 
L 381.461388 305.216316 
L 382.873291 305.216316 
L 382.956344 307.046742 
L 383.12245 305.216316 
L 384.4513 305.216316 
L 384.534353 307.046742 
L 384.700459 305.216316 
L 384.949618 305.216316 
L 385.115724 307.046742 
L 385.281831 305.216316 
L 385.364884 305.216316 
L 385.447937 307.046742 
L 385.614043 305.216316 
L 385.697096 305.216316 
L 385.780149 307.046742 
L 385.946255 305.216316 
L 386.112362 305.216316 
L 386.195415 307.046742 
L 386.361521 305.216316 
L 386.444574 305.216316 
L 386.527627 307.046742 
L 386.693733 305.216316 
L 387.108999 305.216316 
L 387.192052 307.046742 
L 387.358158 305.216316 
L 387.524264 305.216316 
L 387.607317 307.046742 
L 387.69037 305.216316 
L 387.773424 307.046742 
L 387.93953 305.216316 
L 388.437848 305.216316 
L 388.603954 307.046742 
L 388.770061 305.216316 
L 389.102273 305.216316 
L 389.185326 307.046742 
L 389.351432 305.216316 
L 389.517538 305.216316 
L 389.600592 307.046742 
L 389.766698 305.216316 
L 389.932804 305.216316 
L 390.015857 307.046742 
L 390.09891 305.216316 
L 390.181963 307.046742 
L 390.348069 305.216316 
L 390.680282 305.216316 
L 390.763335 307.046742 
L 390.929441 305.216316 
L 391.42776 305.216316 
L 391.593866 109.342064 
L 391.759972 107.511623 
L 391.843025 109.342064 
L 392.009131 107.511623 
L 392.092184 109.342064 
L 392.258291 107.511623 
L 392.424397 109.342064 
L 392.590503 109.342064 
L 392.673556 107.511623 
L 392.839662 109.342064 
L 394.749883 109.342064 
L 394.832937 107.511623 
L 394.999043 109.342064 
L 395.99568 109.342064 
L 396.078733 107.511623 
L 396.244839 109.342064 
L 396.493998 109.342064 
L 396.577052 107.511623 
L 396.743158 109.342064 
L 396.909264 109.342064 
L 396.992317 107.511623 
L 397.07537 109.342064 
L 397.158423 107.511623 
L 397.324529 109.342064 
L 397.490636 109.342064 
L 397.573689 107.511623 
L 397.656742 109.342064 
L 397.822848 107.511623 
L 397.905901 107.511623 
L 397.988954 109.342064 
L 398.072007 107.511623 
L 398.15506 109.342064 
L 398.238113 107.511623 
L 398.321167 109.342064 
L 398.487273 107.511623 
L 398.487273 107.511623 
" clip-path="url(#p2a8c856d32)" style="fill: none; stroke: #1f77b4; stroke-width: 1.5; stroke-linecap: square"/>
   </g>
   <g id="line2d_28">
    <path d="M 73.832727 304.772767 
L 80.726134 304.772767 
L 81.224453 174.075405 
L 81.473612 159.550684 
L 82.054984 148.661832 
L 82.304143 148.661832 
L 82.470249 146.843918 
L 82.553302 146.843918 
L 82.636355 145.032228 
L 82.719408 146.843918 
L 82.885515 145.032228 
L 86.955116 145.032228 
L 87.121222 143.214273 
L 87.204276 143.214273 
L 87.287329 145.032228 
L 87.453435 143.214273 
L 87.536488 143.214273 
L 87.702594 145.032228 
L 87.785647 143.214273 
L 87.8687 145.032228 
L 88.034806 143.214273 
L 88.200913 143.214273 
L 88.283966 145.032228 
L 88.450072 143.214273 
L 88.616178 143.214273 
L 88.699231 145.032228 
L 88.865337 143.214273 
L 89.031444 143.214273 
L 89.114497 145.032228 
L 89.280603 143.214273 
L 89.778921 143.214273 
L 89.945028 145.032228 
L 90.028081 145.032228 
L 90.194187 143.214273 
L 93.682417 143.214273 
L 93.76547 145.032228 
L 93.931576 143.214273 
L 98.831709 143.214273 
L 98.914762 145.032228 
L 99.080868 143.214273 
L 106.804806 143.214273 
L 106.887859 141.39636 
L 107.053965 143.214273 
L 107.635337 143.214273 
L 107.71839 141.39636 
L 107.884496 143.214273 
L 108.382815 143.214273 
L 108.465868 145.032228 
L 108.631974 143.214273 
L 117.850867 143.214273 
L 117.933921 141.39636 
L 118.100027 143.214273 
L 118.18308 141.39636 
L 118.349186 143.214273 
L 119.678036 143.214273 
L 120.176354 257.575291 
L 120.508567 279.359216 
L 120.757726 286.624691 
L 121.172991 293.88392 
L 121.256044 293.88392 
L 121.422151 295.701854 
L 121.505204 295.701854 
L 121.67131 297.513536 
L 122.252682 297.513536 
L 122.501841 301.143152 
L 124.162903 301.143152 
L 124.245956 302.961082 
L 124.329009 301.143152 
L 124.412062 302.961082 
L 124.578168 301.143152 
L 124.744274 301.143152 
L 124.827327 302.961082 
L 124.910381 301.143152 
L 124.993434 302.961082 
L 125.076487 301.143152 
L 125.242593 302.961082 
L 125.408699 302.961082 
L 125.491752 301.143152 
L 125.657858 302.961082 
L 126.488389 302.961082 
L 126.571442 301.143152 
L 126.737549 302.961082 
L 128.398611 302.961082 
L 128.481664 304.772767 
L 128.564717 302.961082 
L 128.64777 304.772767 
L 128.813876 302.961082 
L 129.229141 302.961082 
L 129.312195 304.772767 
L 129.478301 302.961082 
L 129.893566 302.961082 
L 129.976619 304.772767 
L 130.059672 302.961082 
L 130.142726 304.772767 
L 130.225779 302.961082 
L 130.308832 304.772767 
L 130.474938 302.961082 
L 130.557991 304.772767 
L 130.641044 302.961082 
L 130.724097 304.772767 
L 130.890203 302.961082 
L 130.973256 304.772767 
L 131.05631 302.961082 
L 131.222416 304.772767 
L 131.305469 302.961082 
L 131.471575 304.772767 
L 131.554628 302.961082 
L 131.637681 304.772767 
L 131.720734 302.961082 
L 131.886841 304.772767 
L 132.219053 304.772767 
L 132.302106 302.961082 
L 132.468212 304.772767 
L 132.551265 302.961082 
L 132.717371 304.772767 
L 132.800425 304.772767 
L 132.883478 302.961082 
L 133.049584 304.772767 
L 134.212327 304.772767 
L 134.29538 302.961082 
L 134.461486 304.772767 
L 135.042858 304.772767 
L 135.208964 302.961082 
L 135.37507 304.772767 
L 135.458124 302.961082 
L 135.541177 304.772767 
L 135.707283 302.961082 
L 135.873389 304.772767 
L 136.371708 304.772767 
L 136.454761 302.961082 
L 136.620867 304.772767 
L 136.786973 304.772767 
L 136.870026 302.961082 
L 137.036132 304.772767 
L 138.115823 304.772767 
L 138.198876 302.961082 
L 138.364982 304.772767 
L 138.448035 302.961082 
L 138.614141 304.772767 
L 138.697194 304.772767 
L 138.780247 302.961082 
L 138.946354 304.772767 
L 158.380777 304.772767 
L 158.46383 295.701854 
L 158.712989 201.306892 
L 158.962149 170.44576 
L 159.211308 157.738994 
L 159.709627 148.661832 
L 160.207945 148.661832 
L 160.457104 145.032228 
L 160.540158 148.661832 
L 160.706264 145.032228 
L 164.526706 145.032228 
L 164.692812 143.214273 
L 164.775865 143.214273 
L 164.858918 145.032228 
L 164.941972 143.214273 
L 165.108078 145.032228 
L 165.274184 143.214273 
L 165.44029 145.032228 
L 165.606396 143.214273 
L 165.772503 143.214273 
L 165.938609 145.032228 
L 166.104715 143.214273 
L 166.270821 143.214273 
L 166.353874 145.032228 
L 166.51998 143.214273 
L 166.603033 143.214273 
L 166.686087 145.032228 
L 166.852193 143.214273 
L 167.184405 143.214273 
L 167.350511 145.032228 
L 167.516618 143.214273 
L 169.011573 143.214273 
L 169.094626 145.032228 
L 169.260732 143.214273 
L 170.00821 143.214273 
L 170.091263 145.032228 
L 170.174317 143.214273 
L 170.25737 145.032228 
L 170.423476 143.214273 
L 178.230467 143.214273 
L 178.31352 141.39636 
L 178.479626 143.214273 
L 180.888166 143.214273 
L 180.971219 141.39636 
L 181.137325 143.214273 
L 188.77821 143.214273 
L 188.861263 141.39636 
L 189.027369 143.214273 
L 193.263077 143.214273 
L 193.34613 141.39636 
L 193.512236 143.214273 
L 194.176661 143.214273 
L 194.259714 145.032228 
L 194.42582 143.214273 
L 197.332679 143.214273 
L 197.415732 150.473522 
L 197.664891 232.161718 
L 197.997103 268.470371 
L 198.246263 281.177145 
L 198.99374 295.701854 
L 199.325953 295.701854 
L 199.492059 297.513536 
L 199.990378 297.513536 
L 200.073431 301.143152 
L 200.156484 299.331466 
L 200.32259 301.143152 
L 202.315864 301.143152 
L 202.398917 302.961082 
L 202.565023 301.143152 
L 202.73113 301.143152 
L 202.897236 302.961082 
L 203.063342 301.143152 
L 203.229448 301.143152 
L 203.395554 302.961082 
L 204.558298 302.961082 
L 204.641351 301.143152 
L 204.807457 302.961082 
L 206.717678 302.961082 
L 206.883784 304.772767 
L 207.049891 302.961082 
L 207.29905 302.961082 
L 207.382103 304.772767 
L 207.548209 302.961082 
L 207.631262 304.772767 
L 207.797368 302.961082 
L 207.880422 304.772767 
L 208.046528 302.961082 
L 208.212634 304.772767 
L 208.295687 304.772767 
L 208.37874 302.961082 
L 208.544846 304.772767 
L 208.627899 302.961082 
L 208.710953 304.772767 
L 208.794006 302.961082 
L 208.877059 304.772767 
L 209.043165 302.961082 
L 209.126218 302.961082 
L 209.292324 304.772767 
L 209.45843 304.772767 
L 209.541483 302.961082 
L 209.70759 304.772767 
L 209.790643 302.961082 
L 209.956749 304.772767 
L 210.039802 302.961082 
L 210.205908 304.772767 
L 210.288961 302.961082 
L 210.455067 304.772767 
L 210.78728 304.772767 
L 210.953386 302.961082 
L 211.119492 304.772767 
L 211.202545 304.772767 
L 211.285598 302.961082 
L 211.451705 304.772767 
L 211.950023 304.772767 
L 212.033076 302.961082 
L 212.199182 304.772767 
L 212.282236 302.961082 
L 212.448342 304.772767 
L 213.19582 304.772767 
L 213.278873 302.961082 
L 213.361926 304.772767 
L 213.444979 302.961082 
L 213.611085 304.772767 
L 214.27551 304.772767 
L 214.358563 302.961082 
L 214.524669 304.772767 
L 236.035421 304.772767 
L 236.118474 301.143152 
L 236.450686 190.411775 
L 236.699845 166.816156 
L 237.115111 152.291436 
L 237.281217 150.473522 
L 237.36427 150.473522 
L 237.530376 148.661832 
L 237.779536 148.661832 
L 237.862589 146.843918 
L 237.945642 148.661832 
L 238.194801 145.032228 
L 242.098297 145.032228 
L 242.18135 143.214273 
L 242.264403 145.032228 
L 242.430509 143.214273 
L 242.596615 145.032228 
L 242.928828 145.032228 
L 243.011881 143.214273 
L 243.177987 145.032228 
L 243.26104 143.214273 
L 243.344093 145.032228 
L 243.510199 143.214273 
L 243.676305 143.214273 
L 243.759358 145.032228 
L 243.842412 143.214273 
L 243.925465 145.032228 
L 244.091571 143.214273 
L 244.34073 143.214273 
L 244.506836 145.032228 
L 244.589889 145.032228 
L 244.755996 143.214273 
L 244.839049 145.032228 
L 245.005155 143.214273 
L 249.822234 143.214273 
L 249.905288 141.39636 
L 250.071394 143.214273 
L 250.901925 143.214273 
L 250.984978 141.39636 
L 251.151084 143.214273 
L 259.456393 143.214273 
L 259.539446 141.39636 
L 259.705552 143.214273 
L 264.688738 143.214273 
L 264.771791 141.39636 
L 264.937897 143.214273 
L 265.685375 143.214273 
L 265.768428 141.39636 
L 265.934534 143.214273 
L 267.761702 143.214273 
L 267.844755 141.39636 
L 268.010862 143.214273 
L 271.665198 143.214273 
L 271.748251 141.39636 
L 271.914357 143.214273 
L 275.070375 143.214273 
L 275.402587 239.42719 
L 275.651746 268.470371 
L 276.150065 286.624691 
L 276.56533 293.88392 
L 276.648383 293.88392 
L 276.81449 295.701854 
L 276.897543 295.701854 
L 277.063649 297.513536 
L 277.561967 297.513536 
L 277.645021 299.331466 
L 277.728074 297.513536 
L 277.977233 301.143152 
L 278.226392 301.143152 
L 278.309445 299.331466 
L 278.475551 301.143152 
L 279.721348 301.143152 
L 279.804401 302.961082 
L 279.970507 301.143152 
L 280.05356 301.143152 
L 280.219666 302.961082 
L 280.385773 301.143152 
L 280.468826 302.961082 
L 280.551879 301.143152 
L 280.634932 302.961082 
L 280.717985 301.143152 
L 280.884091 302.961082 
L 280.967144 302.961082 
L 281.050197 301.143152 
L 281.216304 302.961082 
L 284.206215 302.961082 
L 284.289268 304.772767 
L 284.455374 302.961082 
L 284.87064 302.961082 
L 284.953693 304.772767 
L 285.036746 302.961082 
L 285.119799 304.772767 
L 285.202852 302.961082 
L 285.285905 304.772767 
L 285.452011 302.961082 
L 285.701171 302.961082 
L 285.784224 304.772767 
L 285.95033 302.961082 
L 286.033383 302.961082 
L 286.199489 304.772767 
L 286.282542 304.772767 
L 286.365595 302.961082 
L 286.531702 304.772767 
L 286.614755 302.961082 
L 286.780861 304.772767 
L 286.863914 302.961082 
L 287.03002 304.772767 
L 287.196126 304.772767 
L 287.362233 302.961082 
L 287.611392 302.961082 
L 287.777498 304.772767 
L 287.860551 302.961082 
L 287.943604 304.772767 
L 288.026657 302.961082 
L 288.192764 304.772767 
L 288.441923 304.772767 
L 288.524976 302.961082 
L 288.608029 304.772767 
L 288.774135 302.961082 
L 288.857188 302.961082 
L 289.023294 304.772767 
L 289.106348 302.961082 
L 289.272454 304.772767 
L 289.43856 302.961082 
L 289.604666 304.772767 
L 289.687719 302.961082 
L 289.853825 304.772767 
L 289.936879 304.772767 
L 290.019932 302.961082 
L 290.186038 304.772767 
L 291.59794 304.772767 
L 291.680994 302.961082 
L 291.8471 304.772767 
L 292.096259 304.772767 
L 292.179312 302.961082 
L 292.345418 304.772767 
L 313.773117 304.772767 
L 314.188382 181.334613 
L 314.520595 159.550684 
L 314.769754 152.291436 
L 314.852807 152.291436 
L 315.101966 148.661832 
L 315.517232 148.661832 
L 315.600285 145.032228 
L 315.683338 146.843918 
L 315.849444 145.032228 
L 320.002099 145.032228 
L 320.085152 143.214273 
L 320.251258 145.032228 
L 320.58347 145.032228 
L 320.666524 143.214273 
L 320.83263 145.032228 
L 320.915683 145.032228 
L 321.081789 143.214273 
L 321.247895 145.032228 
L 321.330948 143.214273 
L 321.414001 145.032228 
L 321.580108 143.214273 
L 321.746214 143.214273 
L 321.91232 145.032228 
L 322.078426 143.214273 
L 322.327585 143.214273 
L 322.493692 145.032228 
L 322.659798 143.214273 
L 322.908957 143.214273 
L 322.99201 145.032228 
L 323.075063 143.214273 
L 323.24117 145.032228 
L 323.407276 143.214273 
L 324.0717 143.214273 
L 324.154754 145.032228 
L 324.32086 143.214273 
L 326.812453 143.214273 
L 326.895506 141.39636 
L 327.061612 143.214273 
L 330.134576 143.214273 
L 330.217629 141.39636 
L 330.383736 143.214273 
L 332.875329 143.214273 
L 332.958382 141.39636 
L 333.124488 143.214273 
L 337.858514 143.214273 
L 337.941567 145.032228 
L 338.107673 143.214273 
L 340.100948 143.214273 
L 340.184001 141.39636 
L 340.350107 143.214273 
L 341.928116 143.214273 
L 342.011169 141.39636 
L 342.177275 143.214273 
L 343.423072 143.214273 
L 343.506125 141.39636 
L 343.672231 143.214273 
L 346.496036 143.214273 
L 346.579089 141.39636 
L 346.828248 145.032228 
L 346.994355 143.214273 
L 347.575726 143.214273 
L 347.658779 141.39636 
L 347.824886 143.214273 
L 352.725018 143.214273 
L 353.30639 266.652437 
L 353.638602 282.995075 
L 353.721655 282.995075 
L 353.970815 290.254308 
L 354.053868 290.254308 
L 354.219974 293.88392 
L 354.303027 293.88392 
L 354.552186 297.513536 
L 354.635239 295.701854 
L 354.801346 297.513536 
L 355.133558 297.513536 
L 355.216611 299.331466 
L 355.382717 297.513536 
L 355.548823 301.143152 
L 355.631876 301.143152 
L 355.71493 299.331466 
L 355.881036 301.143152 
L 358.206522 301.143152 
L 358.372629 302.961082 
L 359.037053 302.961082 
L 359.120106 301.143152 
L 359.286213 302.961082 
L 361.279487 302.961082 
L 361.36254 304.772767 
L 361.528646 302.961082 
L 361.611699 302.961082 
L 361.694752 304.772767 
L 361.860859 302.961082 
L 362.44223 302.961082 
L 362.525283 304.772767 
L 362.69139 302.961082 
L 363.023602 302.961082 
L 363.106655 304.772767 
L 363.272761 302.961082 
L 363.355814 304.772767 
L 363.52192 302.961082 
L 363.854133 302.961082 
L 363.937186 304.772767 
L 364.103292 302.961082 
L 364.269398 304.772767 
L 364.352451 304.772767 
L 364.435504 302.961082 
L 364.60161 304.772767 
L 364.767716 302.961082 
L 364.850769 304.772767 
L 364.933822 302.961082 
L 365.016876 304.772767 
L 365.099929 302.961082 
L 365.182982 304.772767 
L 365.349088 302.961082 
L 365.515194 304.772767 
L 365.6813 304.772767 
L 365.764353 302.961082 
L 365.93046 304.772767 
L 366.594884 304.772767 
L 366.760991 302.961082 
L 366.927097 304.772767 
L 367.591521 304.772767 
L 367.674575 302.961082 
L 367.840681 304.772767 
L 367.923734 304.772767 
L 368.006787 302.961082 
L 368.172893 304.772767 
L 391.42776 304.772767 
L 391.510813 297.513536 
L 391.759972 203.118541 
L 392.009131 170.44576 
L 392.341344 155.92108 
L 392.756609 148.661832 
L 393.254928 148.661832 
L 393.337981 145.032228 
L 393.504087 146.843918 
L 393.58714 146.843918 
L 393.753246 145.032228 
L 396.909264 145.032228 
L 396.992317 143.214273 
L 397.158423 145.032228 
L 398.072007 145.032228 
L 398.15506 143.214273 
L 398.321167 145.032228 
L 398.487273 145.032228 
L 398.487273 145.032228 
" clip-path="url(#p2a8c856d32)" style="fill: none; stroke: #ff7f0e; stroke-width: 1.5; stroke-linecap: square"/>
   </g>
   <g id="line2d_29">
    <path d="M 73.832727 304.772767 
L 80.643081 304.772767 
L 80.726134 293.88392 
L 80.975293 188.593862 
L 81.224453 152.291436 
L 81.639718 143.214273 
L 81.722771 145.032228 
L 81.805824 143.214273 
L 81.971931 145.032228 
L 82.138037 143.214273 
L 82.636355 143.214273 
L 82.719408 145.032228 
L 82.885515 143.214273 
L 83.051621 143.214273 
L 83.134674 145.032228 
L 83.30078 143.214273 
L 83.466886 143.214273 
L 83.549939 145.032228 
L 83.716046 143.214273 
L 83.965205 143.214273 
L 84.048258 145.032228 
L 84.214364 143.214273 
L 84.62963 143.214273 
L 84.712683 145.032228 
L 84.878789 143.214273 
L 85.044895 143.214273 
L 85.127948 145.032228 
L 85.211001 143.214273 
L 85.294054 145.032228 
L 85.460161 143.214273 
L 85.543214 145.032228 
L 85.70932 143.214273 
L 87.038169 143.214273 
L 87.121222 145.032228 
L 87.287329 143.214273 
L 87.370382 143.214273 
L 87.453435 145.032228 
L 87.619541 143.214273 
L 107.801443 143.214273 
L 107.884496 141.39636 
L 108.050602 143.214273 
L 108.133655 141.39636 
L 108.299762 143.214273 
L 112.120204 143.214273 
L 112.203257 141.39636 
L 112.369363 143.214273 
L 114.69485 143.214273 
L 114.777903 141.39636 
L 114.860956 143.214273 
L 114.944009 141.39636 
L 115.110115 143.214273 
L 119.678036 143.214273 
L 120.010248 253.945646 
L 120.259407 284.806762 
L 120.508567 295.701854 
L 120.840779 301.143152 
L 121.006885 301.143152 
L 121.172991 302.961082 
L 121.256044 302.961082 
L 121.339097 304.772767 
L 121.505204 302.961082 
L 121.588257 302.961082 
L 121.67131 304.772767 
L 121.754363 302.961082 
L 121.837416 304.772767 
L 121.920469 302.961082 
L 122.003522 304.772767 
L 122.169628 302.961082 
L 122.335735 302.961082 
L 122.501841 304.772767 
L 122.667947 302.961082 
L 122.834053 304.772767 
L 122.917106 302.961082 
L 123.083212 304.772767 
L 123.249319 304.772767 
L 123.415425 302.961082 
L 123.498478 304.772767 
L 123.581531 302.961082 
L 123.747637 304.772767 
L 124.162903 304.772767 
L 124.245956 302.961082 
L 124.329009 304.772767 
L 124.495115 302.961082 
L 124.578168 304.772767 
L 124.661221 302.961082 
L 124.827327 304.772767 
L 125.242593 304.772767 
L 125.325646 302.961082 
L 125.491752 304.772767 
L 125.990071 304.772767 
L 126.156177 302.961082 
L 126.322283 304.772767 
L 126.571442 304.772767 
L 126.654496 302.961082 
L 126.820602 304.772767 
L 126.903655 302.961082 
L 127.069761 304.772767 
L 127.31892 304.772767 
L 127.401973 302.961082 
L 127.56808 304.772767 
L 128.813876 304.772767 
L 128.896929 302.961082 
L 129.063035 304.772767 
L 129.976619 304.772767 
L 130.059672 302.961082 
L 130.225779 304.772767 
L 158.380777 304.772767 
L 158.46383 295.701854 
L 158.712989 188.593862 
L 158.962149 154.10939 
L 159.211308 145.032228 
L 159.460467 145.032228 
L 159.626574 143.214273 
L 160.374051 143.214273 
L 160.540158 145.032228 
L 160.706264 143.214273 
L 160.87237 143.214273 
L 160.955423 145.032228 
L 161.038476 143.214273 
L 161.204582 145.032228 
L 161.370688 143.214273 
L 161.453742 143.214273 
L 161.536795 145.032228 
L 161.702901 143.214273 
L 161.869007 145.032228 
L 162.035113 143.214273 
L 162.284273 143.214273 
L 162.367326 145.032228 
L 162.533432 143.214273 
L 162.616485 145.032228 
L 162.782591 143.214273 
L 162.865644 143.214273 
L 162.948697 145.032228 
L 163.114803 143.214273 
L 164.443653 143.214273 
L 164.526706 145.032228 
L 164.692812 143.214273 
L 164.775865 145.032228 
L 164.941972 143.214273 
L 165.108078 143.214273 
L 165.191131 145.032228 
L 165.357237 143.214273 
L 172.250644 143.214273 
L 172.333697 141.39636 
L 172.499803 143.214273 
L 175.240555 143.214273 
L 175.323608 145.032228 
L 175.489715 143.214273 
L 176.154139 143.214273 
L 176.237192 141.39636 
L 176.403299 143.214273 
L 177.815201 143.214273 
L 177.898254 141.39636 
L 178.064361 143.214273 
L 180.057635 143.214273 
L 180.140688 141.39636 
L 180.306794 143.214273 
L 182.217015 143.214273 
L 182.300068 145.032228 
L 182.466175 143.214273 
L 184.708608 143.214273 
L 184.791661 141.39636 
L 184.957767 143.214273 
L 191.269803 143.214273 
L 191.352856 141.39636 
L 191.518962 143.214273 
L 192.349493 143.214273 
L 192.432546 141.39636 
L 192.598652 143.214273 
L 192.764758 143.214273 
L 192.847811 141.39636 
L 193.013918 143.214273 
L 194.508873 143.214273 
L 194.591926 141.39636 
L 194.674979 143.214273 
L 194.758033 141.39636 
L 194.924139 143.214273 
L 196.336041 143.214273 
L 196.419094 141.39636 
L 196.585201 143.214273 
L 197.249625 143.214273 
L 197.332679 141.39636 
L 197.415732 143.214273 
L 197.747944 253.945646 
L 197.997103 282.995075 
L 198.246263 297.513536 
L 198.329316 297.513536 
L 198.495422 301.143152 
L 198.661528 301.143152 
L 198.827634 302.961082 
L 199.2429 302.961082 
L 199.409006 304.772767 
L 199.575112 302.961082 
L 199.658165 304.772767 
L 199.824271 302.961082 
L 199.907324 302.961082 
L 199.990378 304.772767 
L 200.073431 302.961082 
L 200.156484 304.772767 
L 200.239537 302.961082 
L 200.405643 304.772767 
L 200.488696 304.772767 
L 200.654802 302.961082 
L 200.737855 302.961082 
L 200.820909 304.772767 
L 200.987015 302.961082 
L 201.070068 304.772767 
L 201.153121 302.961082 
L 201.319227 304.772767 
L 201.40228 302.961082 
L 201.568386 304.772767 
L 201.651439 302.961082 
L 201.817546 304.772767 
L 201.983652 302.961082 
L 202.149758 304.772767 
L 202.232811 302.961082 
L 202.398917 304.772767 
L 202.48197 304.772767 
L 202.565023 302.961082 
L 202.73113 304.772767 
L 202.814183 304.772767 
L 202.980289 302.961082 
L 203.063342 304.772767 
L 203.146395 302.961082 
L 203.312501 304.772767 
L 204.392192 304.772767 
L 204.475245 302.961082 
L 204.641351 304.772767 
L 204.973563 304.772767 
L 205.056616 302.961082 
L 205.222723 304.772767 
L 205.305776 304.772767 
L 205.388829 302.961082 
L 205.471882 304.772767 
L 205.554935 302.961082 
L 205.721041 304.772767 
L 205.9702 304.772767 
L 206.053253 302.961082 
L 206.136307 304.772767 
L 206.21936 302.961082 
L 206.385466 304.772767 
L 209.292324 304.772767 
L 209.375377 302.961082 
L 209.541483 304.772767 
L 236.118474 304.772767 
L 236.201527 286.624691 
L 236.450686 184.964258 
L 236.699845 152.291436 
L 236.949005 145.032228 
L 237.115111 145.032228 
L 237.281217 143.214273 
L 237.36427 143.214273 
L 237.447323 145.032228 
L 237.613429 143.214273 
L 237.696483 145.032228 
L 237.862589 143.214273 
L 237.945642 143.214273 
L 238.028695 145.032228 
L 238.194801 143.214273 
L 238.277854 145.032228 
L 238.44396 143.214273 
L 238.776173 143.214273 
L 238.859226 145.032228 
L 239.025332 143.214273 
L 239.108385 143.214273 
L 239.191438 145.032228 
L 239.274491 143.214273 
L 239.357544 145.032228 
L 239.440598 143.214273 
L 239.606704 145.032228 
L 239.77281 143.214273 
L 239.938916 145.032228 
L 240.105022 143.214273 
L 240.188075 143.214273 
L 240.271129 145.032228 
L 240.437235 143.214273 
L 240.935553 143.214273 
L 241.101659 145.032228 
L 241.267766 143.214273 
L 242.264403 143.214273 
L 242.430509 145.032228 
L 242.596615 143.214273 
L 242.679668 145.032228 
L 242.845774 143.214273 
L 245.42042 143.214273 
L 245.503473 141.39636 
L 245.66958 143.214273 
L 251.483296 143.214273 
L 251.566349 141.39636 
L 251.732456 143.214273 
L 257.712278 143.214273 
L 257.795331 141.39636 
L 257.961437 143.214273 
L 262.031039 143.214273 
L 262.114092 141.39636 
L 262.280198 143.214273 
L 265.104003 143.214273 
L 265.187056 141.39636 
L 265.353162 143.214273 
L 268.924446 143.214273 
L 269.007499 141.39636 
L 269.173605 143.214273 
L 269.921083 143.214273 
L 270.004136 141.39636 
L 270.170242 143.214273 
L 274.655109 143.214273 
L 274.738162 141.39636 
L 274.904268 143.214273 
L 275.070375 143.214273 
L 275.153428 145.032228 
L 275.402587 243.056835 
L 275.734799 286.624691 
L 276.150065 301.143152 
L 276.399224 301.143152 
L 276.482277 302.961082 
L 276.56533 301.143152 
L 276.731436 302.961082 
L 276.897543 302.961082 
L 277.063649 304.772767 
L 277.229755 302.961082 
L 277.395861 302.961082 
L 277.561967 304.772767 
L 277.645021 304.772767 
L 277.728074 302.961082 
L 277.811127 304.772767 
L 277.977233 302.961082 
L 278.143339 304.772767 
L 278.309445 302.961082 
L 278.475551 302.961082 
L 278.558605 304.772767 
L 278.641658 302.961082 
L 278.807764 304.772767 
L 278.890817 304.772767 
L 278.97387 302.961082 
L 279.139976 304.772767 
L 279.223029 304.772767 
L 279.306082 302.961082 
L 279.389135 304.772767 
L 279.472189 302.961082 
L 279.638295 304.772767 
L 279.804401 302.961082 
L 279.970507 304.772767 
L 280.136613 302.961082 
L 280.219666 304.772767 
L 280.30272 302.961082 
L 280.468826 304.772767 
L 280.551879 302.961082 
L 280.634932 304.772767 
L 280.717985 302.961082 
L 280.801038 304.772767 
L 280.884091 302.961082 
L 281.050197 304.772767 
L 281.216304 304.772767 
L 281.299357 302.961082 
L 281.38241 304.772767 
L 281.465463 302.961082 
L 281.631569 304.772767 
L 282.046835 304.772767 
L 282.129888 302.961082 
L 282.295994 304.772767 
L 283.458737 304.772767 
L 283.54179 302.961082 
L 283.707896 304.772767 
L 284.538427 304.772767 
L 284.62148 302.961082 
L 284.787587 304.772767 
L 311.779842 304.772767 
L 311.862896 306.58445 
L 312.029002 304.772767 
L 313.85617 304.772767 
L 314.188382 177.705009 
L 314.437541 150.473522 
L 314.769754 145.032228 
L 314.93586 145.032228 
L 315.101966 143.214273 
L 315.185019 145.032228 
L 315.351126 143.214273 
L 315.849444 143.214273 
L 315.932497 145.032228 
L 316.098603 143.214273 
L 317.012187 143.214273 
L 317.095241 145.032228 
L 317.261347 143.214273 
L 317.593559 143.214273 
L 317.676612 145.032228 
L 317.759665 143.214273 
L 317.925771 145.032228 
L 318.091878 143.214273 
L 318.257984 143.214273 
L 318.341037 145.032228 
L 318.507143 143.214273 
L 318.922409 143.214273 
L 319.005462 145.032228 
L 319.171568 143.214273 
L 319.337674 145.032228 
L 319.420727 143.214273 
L 319.50378 145.032228 
L 319.669886 143.214273 
L 319.835993 145.032228 
L 320.002099 143.214273 
L 320.168205 143.214273 
L 320.334311 145.032228 
L 320.500417 143.214273 
L 326.646346 143.214273 
L 326.7294 141.39636 
L 326.895506 143.214273 
L 328.722674 143.214273 
L 328.805727 141.39636 
L 328.971833 143.214273 
L 330.715948 143.214273 
L 330.799001 141.39636 
L 330.965107 143.214273 
L 340.350107 143.214273 
L 340.43316 141.39636 
L 340.599266 143.214273 
L 352.808071 143.214273 
L 353.472496 288.436374 
L 353.721655 297.513536 
L 353.804708 297.513536 
L 353.970815 301.143152 
L 354.136921 302.961082 
L 354.469133 302.961082 
L 354.552186 304.772767 
L 354.718292 302.961082 
L 355.299664 302.961082 
L 355.382717 304.772767 
L 355.548823 302.961082 
L 355.71493 304.772767 
L 355.964089 304.772767 
L 356.047142 302.961082 
L 356.213248 304.772767 
L 356.379354 304.772767 
L 356.462407 302.961082 
L 356.545461 304.772767 
L 356.711567 302.961082 
L 356.79462 304.772767 
L 356.877673 302.961082 
L 357.043779 304.772767 
L 357.126832 304.772767 
L 357.209885 302.961082 
L 357.375991 304.772767 
L 357.87431 304.772767 
L 357.957363 302.961082 
L 358.123469 304.772767 
L 358.289576 304.772767 
L 358.455682 302.961082 
L 358.621788 304.772767 
L 358.787894 304.772767 
L 358.870947 302.961082 
L 358.954 304.772767 
L 359.037053 302.961082 
L 359.20316 304.772767 
L 359.286213 302.961082 
L 359.452319 304.772767 
L 359.867584 304.772767 
L 359.950637 302.961082 
L 360.116744 304.772767 
L 360.199797 302.961082 
L 360.365903 304.772767 
L 360.698115 304.772767 
L 360.781168 302.961082 
L 360.947275 304.772767 
L 361.528646 304.772767 
L 361.611699 302.961082 
L 361.777805 304.772767 
L 363.272761 304.772767 
L 363.355814 302.961082 
L 363.52192 304.772767 
L 368.505106 304.772767 
L 368.588159 302.961082 
L 368.754265 304.772767 
L 391.510813 304.772767 
L 391.593866 293.88392 
L 391.843025 188.593862 
L 392.092184 154.10939 
L 392.341344 145.032228 
L 392.424397 145.032228 
L 392.50745 143.214273 
L 392.590503 145.032228 
L 392.673556 143.214273 
L 392.839662 145.032228 
L 393.005768 143.214273 
L 393.836299 143.214273 
L 393.919353 145.032228 
L 394.085459 143.214273 
L 394.251565 145.032228 
L 394.417671 143.214273 
L 394.749883 143.214273 
L 394.91599 145.032228 
L 395.082096 145.032228 
L 395.165149 143.214273 
L 395.248202 145.032228 
L 395.414308 143.214273 
L 395.580414 143.214273 
L 395.663468 145.032228 
L 395.829574 143.214273 
L 395.99568 143.214273 
L 396.078733 145.032228 
L 396.244839 143.214273 
L 396.410945 143.214273 
L 396.577052 145.032228 
L 396.743158 143.214273 
L 397.988954 143.214273 
L 398.15506 145.032228 
L 398.321167 143.214273 
L 398.487273 143.214273 
L 398.487273 143.214273 
" clip-path="url(#p2a8c856d32)" style="fill: none; stroke: #2ca02c; stroke-width: 1.5; stroke-linecap: square"/>
   </g>
   <g id="patch_3">
    <path d="M 57.6 307.584 
L 57.6 41.472 
" style="fill: none; stroke: #000000; stroke-width: 0.8; stroke-linejoin: miter; stroke-linecap: square"/>
   </g>
   <g id="patch_4">
    <path d="M 414.72 307.584 
L 414.72 41.472 
" style="fill: none; stroke: #000000; stroke-width: 0.8; stroke-linejoin: miter; stroke-linecap: square"/>
   </g>
   <g id="patch_5">
    <path d="M 57.6 307.584 
L 414.72 307.584 
" style="fill: none; stroke: #000000; stroke-width: 0.8; stroke-linejoin: miter; stroke-linecap: square"/>
   </g>
   <g id="patch_6">
    <path d="M 57.6 41.472 
L 414.72 41.472 
" style="fill: none; stroke: #000000; stroke-width: 0.8; stroke-linejoin: miter; stroke-linecap: square"/>
   </g>
   <g id="legend_1">
    <g id="patch_7">
     <path d="M 294.502813 93.506375 
L 407.72 93.506375 
Q 409.72 93.506375 409.72 91.506375 
L 409.72 48.472 
Q 409.72 46.472 407.72 46.472 
L 294.502813 46.472 
Q 292.502813 46.472 292.502813 48.472 
L 292.502813 91.506375 
Q 292.502813 93.506375 294.502813 93.506375 
z
" style="fill: #ffffff; opacity: 0.8; stroke: #cccccc; stroke-linejoin: miter"/>
    </g>
    <g id="line2d_30">
     <path d="M 296.502813 54.570438 
L 306.502813 54.570438 
L 316.502813 54.570438 
" style="fill: none; stroke: #1f77b4; stroke-width: 1.5; stroke-linecap: square"/>
    </g>
    <g id="text_16">
     <!-- Vin -->
     <g transform="translate(324.502813 58.070438) scale(0.1 -0.1)">
      <use xlink:href="#DejaVuSans-56"/>
      <use xlink:href="#DejaVuSans-69" x="66.158203"/>
      <use xlink:href="#DejaVuSans-6e" x="93.941406"/>
     </g>
    </g>
    <g id="line2d_31">
     <path d="M 296.502813 69.248563 
L 306.502813 69.248563 
L 316.502813 69.248563 
" style="fill: none; stroke: #ff7f0e; stroke-width: 1.5; stroke-linecap: square"/>
    </g>
    <g id="text_17">
     <!-- Vout sans métal -->
     <g transform="translate(324.502813 72.748563) scale(0.1 -0.1)">
      <defs>
       <path id="DejaVuSans-75" d="M 544 1381 
L 544 3500 
L 1119 3500 
L 1119 1403 
Q 1119 906 1312 657 
Q 1506 409 1894 409 
Q 2359 409 2629 706 
Q 2900 1003 2900 1516 
L 2900 3500 
L 3475 3500 
L 3475 0 
L 2900 0 
L 2900 538 
Q 2691 219 2414 64 
Q 2138 -91 1772 -91 
Q 1169 -91 856 284 
Q 544 659 544 1381 
z
M 1991 3584 
L 1991 3584 
z
" transform="scale(0.015625)"/>
       <path id="DejaVuSans-74" d="M 1172 4494 
L 1172 3500 
L 2356 3500 
L 2356 3053 
L 1172 3053 
L 1172 1153 
Q 1172 725 1289 603 
Q 1406 481 1766 481 
L 2356 481 
L 2356 0 
L 1766 0 
Q 1100 0 847 248 
Q 594 497 594 1153 
L 594 3053 
L 172 3053 
L 172 3500 
L 594 3500 
L 594 4494 
L 1172 4494 
z
" transform="scale(0.015625)"/>
       <path id="DejaVuSans-61" d="M 2194 1759 
Q 1497 1759 1228 1600 
Q 959 1441 959 1056 
Q 959 750 1161 570 
Q 1363 391 1709 391 
Q 2188 391 2477 730 
Q 2766 1069 2766 1631 
L 2766 1759 
L 2194 1759 
z
M 3341 1997 
L 3341 0 
L 2766 0 
L 2766 531 
Q 2569 213 2275 61 
Q 1981 -91 1556 -91 
Q 1019 -91 701 211 
Q 384 513 384 1019 
Q 384 1609 779 1909 
Q 1175 2209 1959 2209 
L 2766 2209 
L 2766 2266 
Q 2766 2663 2505 2880 
Q 2244 3097 1772 3097 
Q 1472 3097 1187 3025 
Q 903 2953 641 2809 
L 641 3341 
Q 956 3463 1253 3523 
Q 1550 3584 1831 3584 
Q 2591 3584 2966 3190 
Q 3341 2797 3341 1997 
z
" transform="scale(0.015625)"/>
       <path id="DejaVuSans-e9" d="M 3597 1894 
L 3597 1613 
L 953 1613 
Q 991 1019 1311 708 
Q 1631 397 2203 397 
Q 2534 397 2845 478 
Q 3156 559 3463 722 
L 3463 178 
Q 3153 47 2828 -22 
Q 2503 -91 2169 -91 
Q 1331 -91 842 396 
Q 353 884 353 1716 
Q 353 2575 817 3079 
Q 1281 3584 2069 3584 
Q 2775 3584 3186 3129 
Q 3597 2675 3597 1894 
z
M 3022 2063 
Q 3016 2534 2758 2815 
Q 2500 3097 2075 3097 
Q 1594 3097 1305 2825 
Q 1016 2553 972 2059 
L 3022 2063 
z
M 2469 5119 
L 3091 5119 
L 2072 3944 
L 1594 3944 
L 2469 5119 
z
" transform="scale(0.015625)"/>
       <path id="DejaVuSans-6c" d="M 603 4863 
L 1178 4863 
L 1178 0 
L 603 0 
L 603 4863 
z
" transform="scale(0.015625)"/>
      </defs>
      <use xlink:href="#DejaVuSans-56"/>
      <use xlink:href="#DejaVuSans-6f" x="60.658203"/>
      <use xlink:href="#DejaVuSans-75" x="121.839844"/>
      <use xlink:href="#DejaVuSans-74" x="185.21875"/>
      <use xlink:href="#DejaVuSans-20" x="224.427734"/>
      <use xlink:href="#DejaVuSans-73" x="256.214844"/>
      <use xlink:href="#DejaVuSans-61" x="308.314453"/>
      <use xlink:href="#DejaVuSans-6e" x="369.59375"/>
      <use xlink:href="#DejaVuSans-73" x="432.972656"/>
      <use xlink:href="#DejaVuSans-20" x="485.072266"/>
      <use xlink:href="#DejaVuSans-6d" x="516.859375"/>
      <use xlink:href="#DejaVuSans-e9" x="614.271484"/>
      <use xlink:href="#DejaVuSans-74" x="675.794922"/>
      <use xlink:href="#DejaVuSans-61" x="715.003906"/>
      <use xlink:href="#DejaVuSans-6c" x="776.283203"/>
     </g>
    </g>
    <g id="line2d_32">
     <path d="M 296.502813 83.926688 
L 306.502813 83.926688 
L 316.502813 83.926688 
" style="fill: none; stroke: #2ca02c; stroke-width: 1.5; stroke-linecap: square"/>
    </g>
    <g id="text_18">
     <!-- Vout avec métal -->
     <g transform="translate(324.502813 87.426688) scale(0.1 -0.1)">
      <defs>
       <path id="DejaVuSans-76" d="M 191 3500 
L 800 3500 
L 1894 563 
L 2988 3500 
L 3597 3500 
L 2284 0 
L 1503 0 
L 191 3500 
z
" transform="scale(0.015625)"/>
       <path id="DejaVuSans-63" d="M 3122 3366 
L 3122 2828 
Q 2878 2963 2633 3030 
Q 2388 3097 2138 3097 
Q 1578 3097 1268 2742 
Q 959 2388 959 1747 
Q 959 1106 1268 751 
Q 1578 397 2138 397 
Q 2388 397 2633 464 
Q 2878 531 3122 666 
L 3122 134 
Q 2881 22 2623 -34 
Q 2366 -91 2075 -91 
Q 1284 -91 818 406 
Q 353 903 353 1747 
Q 353 2603 823 3093 
Q 1294 3584 2113 3584 
Q 2378 3584 2631 3529 
Q 2884 3475 3122 3366 
z
" transform="scale(0.015625)"/>
      </defs>
      <use xlink:href="#DejaVuSans-56"/>
      <use xlink:href="#DejaVuSans-6f" x="60.658203"/>
      <use xlink:href="#DejaVuSans-75" x="121.839844"/>
      <use xlink:href="#DejaVuSans-74" x="185.21875"/>
      <use xlink:href="#DejaVuSans-20" x="224.427734"/>
      <use xlink:href="#DejaVuSans-61" x="256.214844"/>
      <use xlink:href="#DejaVuSans-76" x="317.494141"/>
      <use xlink:href="#DejaVuSans-65" x="376.673828"/>
      <use xlink:href="#DejaVuSans-63" x="438.197266"/>
      <use xlink:href="#DejaVuSans-20" x="493.177734"/>
      <use xlink:href="#DejaVuSans-6d" x="524.964844"/>
      <use xlink:href="#DejaVuSans-e9" x="622.376953"/>
      <use xlink:href="#DejaVuSans-74" x="683.900391"/>
      <use xlink:href="#DejaVuSans-61" x="723.109375"/>
      <use xlink:href="#DejaVuSans-6c" x="784.388672"/>
     </g>
    </g>
   </g>
  </g>
 </g>
 <defs>
  <clipPath id="p2a8c856d32">
   <rect x="57.6" y="41.472" width="357.12" height="266.112"/>
  </clipPath>
 </defs>
</svg>
