<?xml version="1.0" encoding="utf-8" standalone="no"?>
<!DOCTYPE svg PUBLIC "-//W3C//DTD SVG 1.1//EN"
  "http://www.w3.org/Graphics/SVG/1.1/DTD/svg11.dtd">
<svg xmlns:xlink="http://www.w3.org/1999/xlink" width="460.8pt" height="345.6pt" viewBox="0 0 460.8 345.6" xmlns="http://www.w3.org/2000/svg" version="1.1">
 <metadata>
  <rdf:RDF xmlns:dc="http://purl.org/dc/elements/1.1/" xmlns:cc="http://creativecommons.org/ns#" xmlns:rdf="http://www.w3.org/1999/02/22-rdf-syntax-ns#">
   <cc:Work>
    <dc:type rdf:resource="http://purl.org/dc/dcmitype/StillImage"/>
    <dc:date>2023-03-30T10:23:49.910264</dc:date>
    <dc:format>image/svg+xml</dc:format>
    <dc:creator>
     <cc:Agent>
      <dc:title>Matplotlib v3.6.3, https://matplotlib.org/</dc:title>
     </cc:Agent>
    </dc:creator>
   </cc:Work>
  </rdf:RDF>
 </metadata>
 <defs>
  <style type="text/css">*{stroke-linejoin: round; stroke-linecap: butt}</style>
 </defs>
 <g id="figure_1">
  <g id="patch_1">
   <path d="M 0 345.6 
L 460.8 345.6 
L 460.8 0 
L 0 0 
z
" style="fill: #ffffff"/>
  </g>
  <g id="axes_1">
   <g id="patch_2">
    <path d="M 57.6 307.584 
L 414.72 307.584 
L 414.72 41.472 
L 57.6 41.472 
z
" style="fill: #ffffff"/>
   </g>
   <g id="matplotlib.axis_1">
    <g id="xtick_1">
     <g id="line2d_1">
      <path d="M 73.832727 307.584 
L 73.832727 41.472 
" clip-path="url(#pc48e510d71)" style="fill: none; stroke: #b0b0b0; stroke-width: 0.8; stroke-linecap: square"/>
     </g>
     <g id="line2d_2">
      <defs>
       <path id="mcd12a04d5f" d="M 0 0 
L 0 3.5 
" style="stroke: #000000; stroke-width: 0.8"/>
      </defs>
      <g>
       <use xlink:href="#mcd12a04d5f" x="73.832727" y="307.584" style="stroke: #000000; stroke-width: 0.8"/>
      </g>
     </g>
     <g id="text_1">
      <!-- 0 -->
      <g transform="translate(70.651477 322.182437) scale(0.1 -0.1)">
       <defs>
        <path id="DejaVuSans-30" d="M 2034 4250 
Q 1547 4250 1301 3770 
Q 1056 3291 1056 2328 
Q 1056 1369 1301 889 
Q 1547 409 2034 409 
Q 2525 409 2770 889 
Q 3016 1369 3016 2328 
Q 3016 3291 2770 3770 
Q 2525 4250 2034 4250 
z
M 2034 4750 
Q 2819 4750 3233 4129 
Q 3647 3509 3647 2328 
Q 3647 1150 3233 529 
Q 2819 -91 2034 -91 
Q 1250 -91 836 529 
Q 422 1150 422 2328 
Q 422 3509 836 4129 
Q 1250 4750 2034 4750 
z
" transform="scale(0.015625)"/>
       </defs>
       <use xlink:href="#DejaVuSans-30"/>
      </g>
     </g>
    </g>
    <g id="xtick_2">
     <g id="line2d_3">
      <path d="M 138.763636 307.584 
L 138.763636 41.472 
" clip-path="url(#pc48e510d71)" style="fill: none; stroke: #b0b0b0; stroke-width: 0.8; stroke-linecap: square"/>
     </g>
     <g id="line2d_4">
      <g>
       <use xlink:href="#mcd12a04d5f" x="138.763636" y="307.584" style="stroke: #000000; stroke-width: 0.8"/>
      </g>
     </g>
     <g id="text_2">
      <!-- 20 -->
      <g transform="translate(132.401136 322.182437) scale(0.1 -0.1)">
       <defs>
        <path id="DejaVuSans-32" d="M 1228 531 
L 3431 531 
L 3431 0 
L 469 0 
L 469 531 
Q 828 903 1448 1529 
Q 2069 2156 2228 2338 
Q 2531 2678 2651 2914 
Q 2772 3150 2772 3378 
Q 2772 3750 2511 3984 
Q 2250 4219 1831 4219 
Q 1534 4219 1204 4116 
Q 875 4013 500 3803 
L 500 4441 
Q 881 4594 1212 4672 
Q 1544 4750 1819 4750 
Q 2544 4750 2975 4387 
Q 3406 4025 3406 3419 
Q 3406 3131 3298 2873 
Q 3191 2616 2906 2266 
Q 2828 2175 2409 1742 
Q 1991 1309 1228 531 
z
" transform="scale(0.015625)"/>
       </defs>
       <use xlink:href="#DejaVuSans-32"/>
       <use xlink:href="#DejaVuSans-30" x="63.623047"/>
      </g>
     </g>
    </g>
    <g id="xtick_3">
     <g id="line2d_5">
      <path d="M 203.694545 307.584 
L 203.694545 41.472 
" clip-path="url(#pc48e510d71)" style="fill: none; stroke: #b0b0b0; stroke-width: 0.8; stroke-linecap: square"/>
     </g>
     <g id="line2d_6">
      <g>
       <use xlink:href="#mcd12a04d5f" x="203.694545" y="307.584" style="stroke: #000000; stroke-width: 0.8"/>
      </g>
     </g>
     <g id="text_3">
      <!-- 40 -->
      <g transform="translate(197.332045 322.182437) scale(0.1 -0.1)">
       <defs>
        <path id="DejaVuSans-34" d="M 2419 4116 
L 825 1625 
L 2419 1625 
L 2419 4116 
z
M 2253 4666 
L 3047 4666 
L 3047 1625 
L 3713 1625 
L 3713 1100 
L 3047 1100 
L 3047 0 
L 2419 0 
L 2419 1100 
L 313 1100 
L 313 1709 
L 2253 4666 
z
" transform="scale(0.015625)"/>
       </defs>
       <use xlink:href="#DejaVuSans-34"/>
       <use xlink:href="#DejaVuSans-30" x="63.623047"/>
      </g>
     </g>
    </g>
    <g id="xtick_4">
     <g id="line2d_7">
      <path d="M 268.625455 307.584 
L 268.625455 41.472 
" clip-path="url(#pc48e510d71)" style="fill: none; stroke: #b0b0b0; stroke-width: 0.8; stroke-linecap: square"/>
     </g>
     <g id="line2d_8">
      <g>
       <use xlink:href="#mcd12a04d5f" x="268.625455" y="307.584" style="stroke: #000000; stroke-width: 0.8"/>
      </g>
     </g>
     <g id="text_4">
      <!-- 60 -->
      <g transform="translate(262.262955 322.182437) scale(0.1 -0.1)">
       <defs>
        <path id="DejaVuSans-36" d="M 2113 2584 
Q 1688 2584 1439 2293 
Q 1191 2003 1191 1497 
Q 1191 994 1439 701 
Q 1688 409 2113 409 
Q 2538 409 2786 701 
Q 3034 994 3034 1497 
Q 3034 2003 2786 2293 
Q 2538 2584 2113 2584 
z
M 3366 4563 
L 3366 3988 
Q 3128 4100 2886 4159 
Q 2644 4219 2406 4219 
Q 1781 4219 1451 3797 
Q 1122 3375 1075 2522 
Q 1259 2794 1537 2939 
Q 1816 3084 2150 3084 
Q 2853 3084 3261 2657 
Q 3669 2231 3669 1497 
Q 3669 778 3244 343 
Q 2819 -91 2113 -91 
Q 1303 -91 875 529 
Q 447 1150 447 2328 
Q 447 3434 972 4092 
Q 1497 4750 2381 4750 
Q 2619 4750 2861 4703 
Q 3103 4656 3366 4563 
z
" transform="scale(0.015625)"/>
       </defs>
       <use xlink:href="#DejaVuSans-36"/>
       <use xlink:href="#DejaVuSans-30" x="63.623047"/>
      </g>
     </g>
    </g>
    <g id="xtick_5">
     <g id="line2d_9">
      <path d="M 333.556364 307.584 
L 333.556364 41.472 
" clip-path="url(#pc48e510d71)" style="fill: none; stroke: #b0b0b0; stroke-width: 0.8; stroke-linecap: square"/>
     </g>
     <g id="line2d_10">
      <g>
       <use xlink:href="#mcd12a04d5f" x="333.556364" y="307.584" style="stroke: #000000; stroke-width: 0.8"/>
      </g>
     </g>
     <g id="text_5">
      <!-- 80 -->
      <g transform="translate(327.193864 322.182437) scale(0.1 -0.1)">
       <defs>
        <path id="DejaVuSans-38" d="M 2034 2216 
Q 1584 2216 1326 1975 
Q 1069 1734 1069 1313 
Q 1069 891 1326 650 
Q 1584 409 2034 409 
Q 2484 409 2743 651 
Q 3003 894 3003 1313 
Q 3003 1734 2745 1975 
Q 2488 2216 2034 2216 
z
M 1403 2484 
Q 997 2584 770 2862 
Q 544 3141 544 3541 
Q 544 4100 942 4425 
Q 1341 4750 2034 4750 
Q 2731 4750 3128 4425 
Q 3525 4100 3525 3541 
Q 3525 3141 3298 2862 
Q 3072 2584 2669 2484 
Q 3125 2378 3379 2068 
Q 3634 1759 3634 1313 
Q 3634 634 3220 271 
Q 2806 -91 2034 -91 
Q 1263 -91 848 271 
Q 434 634 434 1313 
Q 434 1759 690 2068 
Q 947 2378 1403 2484 
z
M 1172 3481 
Q 1172 3119 1398 2916 
Q 1625 2713 2034 2713 
Q 2441 2713 2670 2916 
Q 2900 3119 2900 3481 
Q 2900 3844 2670 4047 
Q 2441 4250 2034 4250 
Q 1625 4250 1398 4047 
Q 1172 3844 1172 3481 
z
" transform="scale(0.015625)"/>
       </defs>
       <use xlink:href="#DejaVuSans-38"/>
       <use xlink:href="#DejaVuSans-30" x="63.623047"/>
      </g>
     </g>
    </g>
    <g id="xtick_6">
     <g id="line2d_11">
      <path d="M 398.487273 307.584 
L 398.487273 41.472 
" clip-path="url(#pc48e510d71)" style="fill: none; stroke: #b0b0b0; stroke-width: 0.8; stroke-linecap: square"/>
     </g>
     <g id="line2d_12">
      <g>
       <use xlink:href="#mcd12a04d5f" x="398.487273" y="307.584" style="stroke: #000000; stroke-width: 0.8"/>
      </g>
     </g>
     <g id="text_6">
      <!-- 100 -->
      <g transform="translate(388.943523 322.182437) scale(0.1 -0.1)">
       <defs>
        <path id="DejaVuSans-31" d="M 794 531 
L 1825 531 
L 1825 4091 
L 703 3866 
L 703 4441 
L 1819 4666 
L 2450 4666 
L 2450 531 
L 3481 531 
L 3481 0 
L 794 0 
L 794 531 
z
" transform="scale(0.015625)"/>
       </defs>
       <use xlink:href="#DejaVuSans-31"/>
       <use xlink:href="#DejaVuSans-30" x="63.623047"/>
       <use xlink:href="#DejaVuSans-30" x="127.246094"/>
      </g>
     </g>
    </g>
    <g id="text_7">
     <!-- Temps [μs] -->
     <g transform="translate(208.95375 335.860562) scale(0.1 -0.1)">
      <defs>
       <path id="DejaVuSans-54" d="M -19 4666 
L 3928 4666 
L 3928 4134 
L 2272 4134 
L 2272 0 
L 1638 0 
L 1638 4134 
L -19 4134 
L -19 4666 
z
" transform="scale(0.015625)"/>
       <path id="DejaVuSans-65" d="M 3597 1894 
L 3597 1613 
L 953 1613 
Q 991 1019 1311 708 
Q 1631 397 2203 397 
Q 2534 397 2845 478 
Q 3156 559 3463 722 
L 3463 178 
Q 3153 47 2828 -22 
Q 2503 -91 2169 -91 
Q 1331 -91 842 396 
Q 353 884 353 1716 
Q 353 2575 817 3079 
Q 1281 3584 2069 3584 
Q 2775 3584 3186 3129 
Q 3597 2675 3597 1894 
z
M 3022 2063 
Q 3016 2534 2758 2815 
Q 2500 3097 2075 3097 
Q 1594 3097 1305 2825 
Q 1016 2553 972 2059 
L 3022 2063 
z
" transform="scale(0.015625)"/>
       <path id="DejaVuSans-6d" d="M 3328 2828 
Q 3544 3216 3844 3400 
Q 4144 3584 4550 3584 
Q 5097 3584 5394 3201 
Q 5691 2819 5691 2113 
L 5691 0 
L 5113 0 
L 5113 2094 
Q 5113 2597 4934 2840 
Q 4756 3084 4391 3084 
Q 3944 3084 3684 2787 
Q 3425 2491 3425 1978 
L 3425 0 
L 2847 0 
L 2847 2094 
Q 2847 2600 2669 2842 
Q 2491 3084 2119 3084 
Q 1678 3084 1418 2786 
Q 1159 2488 1159 1978 
L 1159 0 
L 581 0 
L 581 3500 
L 1159 3500 
L 1159 2956 
Q 1356 3278 1631 3431 
Q 1906 3584 2284 3584 
Q 2666 3584 2933 3390 
Q 3200 3197 3328 2828 
z
" transform="scale(0.015625)"/>
       <path id="DejaVuSans-70" d="M 1159 525 
L 1159 -1331 
L 581 -1331 
L 581 3500 
L 1159 3500 
L 1159 2969 
Q 1341 3281 1617 3432 
Q 1894 3584 2278 3584 
Q 2916 3584 3314 3078 
Q 3713 2572 3713 1747 
Q 3713 922 3314 415 
Q 2916 -91 2278 -91 
Q 1894 -91 1617 61 
Q 1341 213 1159 525 
z
M 3116 1747 
Q 3116 2381 2855 2742 
Q 2594 3103 2138 3103 
Q 1681 3103 1420 2742 
Q 1159 2381 1159 1747 
Q 1159 1113 1420 752 
Q 1681 391 2138 391 
Q 2594 391 2855 752 
Q 3116 1113 3116 1747 
z
" transform="scale(0.015625)"/>
       <path id="DejaVuSans-73" d="M 2834 3397 
L 2834 2853 
Q 2591 2978 2328 3040 
Q 2066 3103 1784 3103 
Q 1356 3103 1142 2972 
Q 928 2841 928 2578 
Q 928 2378 1081 2264 
Q 1234 2150 1697 2047 
L 1894 2003 
Q 2506 1872 2764 1633 
Q 3022 1394 3022 966 
Q 3022 478 2636 193 
Q 2250 -91 1575 -91 
Q 1294 -91 989 -36 
Q 684 19 347 128 
L 347 722 
Q 666 556 975 473 
Q 1284 391 1588 391 
Q 1994 391 2212 530 
Q 2431 669 2431 922 
Q 2431 1156 2273 1281 
Q 2116 1406 1581 1522 
L 1381 1569 
Q 847 1681 609 1914 
Q 372 2147 372 2553 
Q 372 3047 722 3315 
Q 1072 3584 1716 3584 
Q 2034 3584 2315 3537 
Q 2597 3491 2834 3397 
z
" transform="scale(0.015625)"/>
       <path id="DejaVuSans-20" transform="scale(0.015625)"/>
       <path id="DejaVuSans-5b" d="M 550 4863 
L 1875 4863 
L 1875 4416 
L 1125 4416 
L 1125 -397 
L 1875 -397 
L 1875 -844 
L 550 -844 
L 550 4863 
z
" transform="scale(0.015625)"/>
       <path id="DejaVuSans-3bc" d="M 544 -1331 
L 544 3500 
L 1119 3500 
L 1119 1325 
Q 1119 872 1334 640 
Q 1550 409 1972 409 
Q 2434 409 2667 671 
Q 2900 934 2900 1459 
L 2900 3500 
L 3475 3500 
L 3475 806 
Q 3475 619 3529 530 
Q 3584 441 3700 441 
Q 3728 441 3778 458 
Q 3828 475 3916 513 
L 3916 50 
Q 3788 -22 3673 -56 
Q 3559 -91 3450 -91 
Q 3234 -91 3106 31 
Q 2978 153 2931 403 
Q 2775 156 2548 32 
Q 2322 -91 2016 -91 
Q 1697 -91 1473 31 
Q 1250 153 1119 397 
L 1119 -1331 
L 544 -1331 
z
" transform="scale(0.015625)"/>
       <path id="DejaVuSans-5d" d="M 1947 4863 
L 1947 -844 
L 622 -844 
L 622 -397 
L 1369 -397 
L 1369 4416 
L 622 4416 
L 622 4863 
L 1947 4863 
z
" transform="scale(0.015625)"/>
      </defs>
      <use xlink:href="#DejaVuSans-54"/>
      <use xlink:href="#DejaVuSans-65" x="44.083984"/>
      <use xlink:href="#DejaVuSans-6d" x="105.607422"/>
      <use xlink:href="#DejaVuSans-70" x="203.019531"/>
      <use xlink:href="#DejaVuSans-73" x="266.496094"/>
      <use xlink:href="#DejaVuSans-20" x="318.595703"/>
      <use xlink:href="#DejaVuSans-5b" x="350.382812"/>
      <use xlink:href="#DejaVuSans-3bc" x="389.396484"/>
      <use xlink:href="#DejaVuSans-73" x="453.019531"/>
      <use xlink:href="#DejaVuSans-5d" x="505.119141"/>
     </g>
    </g>
   </g>
   <g id="matplotlib.axis_2">
    <g id="ytick_1">
     <g id="line2d_13">
      <path d="M 57.6 295.488 
L 414.72 295.488 
" clip-path="url(#pc48e510d71)" style="fill: none; stroke: #b0b0b0; stroke-width: 0.8; stroke-linecap: square"/>
     </g>
     <g id="line2d_14">
      <defs>
       <path id="m13b8f2e9d1" d="M 0 0 
L -3.5 0 
" style="stroke: #000000; stroke-width: 0.8"/>
      </defs>
      <g>
       <use xlink:href="#m13b8f2e9d1" x="57.6" y="295.488" style="stroke: #000000; stroke-width: 0.8"/>
      </g>
     </g>
     <g id="text_8">
      <!-- 0 -->
      <g transform="translate(44.2375 299.287219) scale(0.1 -0.1)">
       <use xlink:href="#DejaVuSans-30"/>
      </g>
     </g>
    </g>
    <g id="ytick_2">
     <g id="line2d_15">
      <path d="M 57.6 247.104 
L 414.72 247.104 
" clip-path="url(#pc48e510d71)" style="fill: none; stroke: #b0b0b0; stroke-width: 0.8; stroke-linecap: square"/>
     </g>
     <g id="line2d_16">
      <g>
       <use xlink:href="#m13b8f2e9d1" x="57.6" y="247.104" style="stroke: #000000; stroke-width: 0.8"/>
      </g>
     </g>
     <g id="text_9">
      <!-- 1 -->
      <g transform="translate(44.2375 250.903219) scale(0.1 -0.1)">
       <use xlink:href="#DejaVuSans-31"/>
      </g>
     </g>
    </g>
    <g id="ytick_3">
     <g id="line2d_17">
      <path d="M 57.6 198.72 
L 414.72 198.72 
" clip-path="url(#pc48e510d71)" style="fill: none; stroke: #b0b0b0; stroke-width: 0.8; stroke-linecap: square"/>
     </g>
     <g id="line2d_18">
      <g>
       <use xlink:href="#m13b8f2e9d1" x="57.6" y="198.72" style="stroke: #000000; stroke-width: 0.8"/>
      </g>
     </g>
     <g id="text_10">
      <!-- 2 -->
      <g transform="translate(44.2375 202.519219) scale(0.1 -0.1)">
       <use xlink:href="#DejaVuSans-32"/>
      </g>
     </g>
    </g>
    <g id="ytick_4">
     <g id="line2d_19">
      <path d="M 57.6 150.336 
L 414.72 150.336 
" clip-path="url(#pc48e510d71)" style="fill: none; stroke: #b0b0b0; stroke-width: 0.8; stroke-linecap: square"/>
     </g>
     <g id="line2d_20">
      <g>
       <use xlink:href="#m13b8f2e9d1" x="57.6" y="150.336" style="stroke: #000000; stroke-width: 0.8"/>
      </g>
     </g>
     <g id="text_11">
      <!-- 3 -->
      <g transform="translate(44.2375 154.135219) scale(0.1 -0.1)">
       <defs>
        <path id="DejaVuSans-33" d="M 2597 2516 
Q 3050 2419 3304 2112 
Q 3559 1806 3559 1356 
Q 3559 666 3084 287 
Q 2609 -91 1734 -91 
Q 1441 -91 1130 -33 
Q 819 25 488 141 
L 488 750 
Q 750 597 1062 519 
Q 1375 441 1716 441 
Q 2309 441 2620 675 
Q 2931 909 2931 1356 
Q 2931 1769 2642 2001 
Q 2353 2234 1838 2234 
L 1294 2234 
L 1294 2753 
L 1863 2753 
Q 2328 2753 2575 2939 
Q 2822 3125 2822 3475 
Q 2822 3834 2567 4026 
Q 2313 4219 1838 4219 
Q 1578 4219 1281 4162 
Q 984 4106 628 3988 
L 628 4550 
Q 988 4650 1302 4700 
Q 1616 4750 1894 4750 
Q 2613 4750 3031 4423 
Q 3450 4097 3450 3541 
Q 3450 3153 3228 2886 
Q 3006 2619 2597 2516 
z
" transform="scale(0.015625)"/>
       </defs>
       <use xlink:href="#DejaVuSans-33"/>
      </g>
     </g>
    </g>
    <g id="ytick_5">
     <g id="line2d_21">
      <path d="M 57.6 101.952 
L 414.72 101.952 
" clip-path="url(#pc48e510d71)" style="fill: none; stroke: #b0b0b0; stroke-width: 0.8; stroke-linecap: square"/>
     </g>
     <g id="line2d_22">
      <g>
       <use xlink:href="#m13b8f2e9d1" x="57.6" y="101.952" style="stroke: #000000; stroke-width: 0.8"/>
      </g>
     </g>
     <g id="text_12">
      <!-- 4 -->
      <g transform="translate(44.2375 105.751219) scale(0.1 -0.1)">
       <use xlink:href="#DejaVuSans-34"/>
      </g>
     </g>
    </g>
    <g id="ytick_6">
     <g id="line2d_23">
      <path d="M 57.6 53.568 
L 414.72 53.568 
" clip-path="url(#pc48e510d71)" style="fill: none; stroke: #b0b0b0; stroke-width: 0.8; stroke-linecap: square"/>
     </g>
     <g id="line2d_24">
      <g>
       <use xlink:href="#m13b8f2e9d1" x="57.6" y="53.568" style="stroke: #000000; stroke-width: 0.8"/>
      </g>
     </g>
     <g id="text_13">
      <!-- 5 -->
      <g transform="translate(44.2375 57.367219) scale(0.1 -0.1)">
       <defs>
        <path id="DejaVuSans-35" d="M 691 4666 
L 3169 4666 
L 3169 4134 
L 1269 4134 
L 1269 2991 
Q 1406 3038 1543 3061 
Q 1681 3084 1819 3084 
Q 2600 3084 3056 2656 
Q 3513 2228 3513 1497 
Q 3513 744 3044 326 
Q 2575 -91 1722 -91 
Q 1428 -91 1123 -41 
Q 819 9 494 109 
L 494 744 
Q 775 591 1075 516 
Q 1375 441 1709 441 
Q 2250 441 2565 725 
Q 2881 1009 2881 1497 
Q 2881 1984 2565 2268 
Q 2250 2553 1709 2553 
Q 1456 2553 1204 2497 
Q 953 2441 691 2322 
L 691 4666 
z
" transform="scale(0.015625)"/>
       </defs>
       <use xlink:href="#DejaVuSans-35"/>
      </g>
     </g>
    </g>
    <g id="text_14">
     <!-- Tension [V] -->
     <g transform="translate(38.157812 202.110031) rotate(-90) scale(0.1 -0.1)">
      <defs>
       <path id="DejaVuSans-6e" d="M 3513 2113 
L 3513 0 
L 2938 0 
L 2938 2094 
Q 2938 2591 2744 2837 
Q 2550 3084 2163 3084 
Q 1697 3084 1428 2787 
Q 1159 2491 1159 1978 
L 1159 0 
L 581 0 
L 581 3500 
L 1159 3500 
L 1159 2956 
Q 1366 3272 1645 3428 
Q 1925 3584 2291 3584 
Q 2894 3584 3203 3211 
Q 3513 2838 3513 2113 
z
" transform="scale(0.015625)"/>
       <path id="DejaVuSans-69" d="M 603 3500 
L 1178 3500 
L 1178 0 
L 603 0 
L 603 3500 
z
M 603 4863 
L 1178 4863 
L 1178 4134 
L 603 4134 
L 603 4863 
z
" transform="scale(0.015625)"/>
       <path id="DejaVuSans-6f" d="M 1959 3097 
Q 1497 3097 1228 2736 
Q 959 2375 959 1747 
Q 959 1119 1226 758 
Q 1494 397 1959 397 
Q 2419 397 2687 759 
Q 2956 1122 2956 1747 
Q 2956 2369 2687 2733 
Q 2419 3097 1959 3097 
z
M 1959 3584 
Q 2709 3584 3137 3096 
Q 3566 2609 3566 1747 
Q 3566 888 3137 398 
Q 2709 -91 1959 -91 
Q 1206 -91 779 398 
Q 353 888 353 1747 
Q 353 2609 779 3096 
Q 1206 3584 1959 3584 
z
" transform="scale(0.015625)"/>
       <path id="DejaVuSans-56" d="M 1831 0 
L 50 4666 
L 709 4666 
L 2188 738 
L 3669 4666 
L 4325 4666 
L 2547 0 
L 1831 0 
z
" transform="scale(0.015625)"/>
      </defs>
      <use xlink:href="#DejaVuSans-54"/>
      <use xlink:href="#DejaVuSans-65" x="44.083984"/>
      <use xlink:href="#DejaVuSans-6e" x="105.607422"/>
      <use xlink:href="#DejaVuSans-73" x="168.986328"/>
      <use xlink:href="#DejaVuSans-69" x="221.085938"/>
      <use xlink:href="#DejaVuSans-6f" x="248.869141"/>
      <use xlink:href="#DejaVuSans-6e" x="310.050781"/>
      <use xlink:href="#DejaVuSans-20" x="373.429688"/>
      <use xlink:href="#DejaVuSans-5b" x="405.216797"/>
      <use xlink:href="#DejaVuSans-56" x="444.230469"/>
      <use xlink:href="#DejaVuSans-5d" x="512.638672"/>
     </g>
    </g>
   </g>
   <g id="line2d_25">
    <path d="M 73.832727 53.568 
L 89.756724 53.568 
L 90.081704 295.488 
L 106.0057 295.488 
L 106.33068 53.568 
L 122.254676 53.568 
L 122.579656 295.488 
L 138.503653 295.488 
L 138.828632 53.568 
L 154.752629 53.568 
L 155.077609 295.488 
L 171.001605 295.488 
L 171.326585 53.568 
L 187.250581 53.568 
L 187.575561 295.488 
L 203.499558 295.488 
L 203.824537 53.568 
L 219.748534 53.568 
L 220.073514 295.488 
L 235.99751 295.488 
L 236.32249 53.568 
L 252.246486 53.568 
L 252.571466 295.488 
L 268.495463 295.488 
L 268.820442 53.568 
L 284.744439 53.568 
L 285.069419 295.488 
L 300.993415 295.488 
L 301.318395 53.568 
L 317.242391 53.568 
L 317.567371 295.488 
L 333.491368 295.488 
L 333.816347 53.568 
L 349.740344 53.568 
L 350.065324 295.488 
L 365.98932 295.488 
L 366.3143 53.568 
L 382.238296 53.568 
L 382.563276 295.488 
L 398.487273 295.488 
L 398.487273 295.488 
" clip-path="url(#pc48e510d71)" style="fill: none; stroke: #1f77b4; stroke-width: 1.5; stroke-linecap: square"/>
   </g>
   <g id="line2d_26">
    <path d="M 73.832727 295.488 
L 75.457625 261.443694 
L 77.082523 232.190289 
L 78.70742 207.053583 
L 80.332318 185.454251 
L 81.957215 166.894496 
L 83.582113 150.946572 
L 85.207011 137.242926 
L 86.831908 125.467733 
L 88.456806 115.349609 
L 89.756724 108.290353 
L 90.081704 108.290353 
L 91.706601 134.63383 
L 93.331499 157.270109 
L 94.956396 176.720887 
L 96.581294 193.434445 
L 98.206192 207.79598 
L 99.831089 220.136481 
L 101.455987 230.740359 
L 103.080885 239.852001 
L 104.705782 247.681404 
L 106.0057 253.143854 
L 106.33068 253.143854 
L 107.955577 225.058448 
L 109.580475 200.925374 
L 111.205373 180.188438 
L 112.83027 162.369717 
L 114.455168 147.058544 
L 116.080066 133.902043 
L 117.704963 122.596997 
L 119.329861 112.882859 
L 120.954758 104.535747 
L 122.254676 98.712099 
L 122.579656 98.712099 
L 124.204554 126.40348 
L 125.829451 150.197979 
L 127.454349 170.643986 
L 129.079247 188.212719 
L 130.704144 203.309084 
L 132.329042 216.281005 
L 133.953939 227.427447 
L 135.578837 237.0053 
L 137.203735 245.235306 
L 138.503653 250.977251 
L 138.828632 250.977251 
L 140.45353 223.196741 
L 142.078428 199.325656 
L 143.703325 178.813841 
L 145.328223 161.188561 
L 146.95312 146.043607 
L 148.578018 133.029933 
L 150.202916 121.847615 
L 151.827813 112.238934 
L 153.452711 103.982439 
L 154.752629 98.222013 
L 155.077609 98.222013 
L 156.702506 125.982362 
L 158.327404 149.836123 
L 159.952301 170.333052 
L 161.577199 187.945541 
L 163.202097 203.079505 
L 164.826994 216.083734 
L 166.451892 227.257937 
L 168.07679 236.859645 
L 169.701687 245.110148 
L 171.001605 250.866394 
L 171.326585 250.866394 
L 172.951482 223.101484 
L 174.57638 199.243804 
L 176.201278 178.743508 
L 177.826175 161.128126 
L 179.451073 145.991676 
L 181.075971 132.985311 
L 182.700868 121.809272 
L 184.325766 112.205987 
L 185.950663 103.954128 
L 187.250581 98.196937 
L 187.575561 98.196937 
L 189.200459 125.960815 
L 190.825356 149.817608 
L 192.450254 170.317143 
L 194.075152 187.931871 
L 195.700049 203.067758 
L 197.324947 216.07364 
L 198.949844 227.249263 
L 200.574742 236.852192 
L 202.19964 245.103744 
L 203.499558 250.860721 
L 203.824537 250.860721 
L 205.449435 223.09661 
L 207.074333 199.239616 
L 208.69923 178.739909 
L 210.324128 161.125033 
L 211.949025 145.989019 
L 213.573923 132.983027 
L 215.198821 121.80731 
L 216.823718 112.204301 
L 218.448616 103.95268 
L 219.748534 98.195654 
L 220.073514 98.195654 
L 221.698411 125.959712 
L 223.323309 149.816661 
L 224.948206 170.316329 
L 226.573104 187.931171 
L 228.198002 203.067157 
L 229.822899 216.073124 
L 231.447797 227.24882 
L 233.072695 236.851811 
L 234.697592 245.103416 
L 235.99751 250.860431 
L 236.32249 250.860431 
L 237.947387 223.096361 
L 239.572285 199.239402 
L 241.197183 178.739725 
L 242.82208 161.124875 
L 244.446978 145.988883 
L 246.071876 132.982911 
L 247.696773 121.80721 
L 249.321671 112.204215 
L 250.946568 103.952606 
L 252.246486 98.195588 
L 252.571466 98.195588 
L 254.196364 125.959656 
L 255.821261 149.816612 
L 257.446159 170.316287 
L 259.071057 187.931135 
L 260.695954 203.067126 
L 262.320852 216.073097 
L 263.945749 227.248797 
L 265.570647 236.851791 
L 267.195545 245.103399 
L 268.495463 250.860416 
L 268.820442 250.860416 
L 270.44534 223.096348 
L 272.070238 199.239391 
L 273.695135 178.739716 
L 275.320033 161.124867 
L 276.94493 145.988876 
L 278.569828 132.982905 
L 280.194726 121.807205 
L 281.819623 112.20421 
L 283.444521 103.952602 
L 284.744439 98.195585 
L 285.069419 98.195585 
L 286.694316 125.959653 
L 288.319214 149.81661 
L 289.944111 170.316285 
L 291.569009 187.931134 
L 293.193907 203.067124 
L 294.818804 216.073096 
L 296.443702 227.248796 
L 298.0686 236.85179 
L 299.693497 245.103398 
L 300.993415 250.860416 
L 301.318395 250.860416 
L 302.943292 223.096347 
L 304.56819 199.239391 
L 306.193088 178.739715 
L 307.817985 161.124866 
L 309.442883 145.988876 
L 311.067781 132.982904 
L 312.692678 121.807204 
L 314.317576 112.20421 
L 315.942473 103.952602 
L 317.242391 98.195584 
L 317.567371 98.195584 
L 319.192269 125.959653 
L 320.817166 149.81661 
L 322.442064 170.316285 
L 324.066962 187.931134 
L 325.691859 203.067124 
L 327.316757 216.073096 
L 328.941654 227.248796 
L 330.566552 236.85179 
L 332.19145 245.103398 
L 333.491368 250.860416 
L 333.816347 250.860416 
L 335.441245 223.096347 
L 337.066143 199.23939 
L 338.69104 178.739715 
L 340.315938 161.124866 
L 341.940835 145.988876 
L 343.565733 132.982904 
L 345.190631 121.807204 
L 346.815528 112.20421 
L 348.440426 103.952602 
L 349.740344 98.195584 
L 350.065324 98.195584 
L 351.690221 125.959653 
L 353.315119 149.81661 
L 354.940016 170.316285 
L 356.564914 187.931134 
L 358.189812 203.067124 
L 359.814709 216.073096 
L 361.439607 227.248796 
L 363.064505 236.85179 
L 364.689402 245.103398 
L 365.98932 250.860416 
L 366.3143 250.860416 
L 367.939197 223.096347 
L 369.564095 199.23939 
L 371.188993 178.739715 
L 372.81389 161.124866 
L 374.438788 145.988876 
L 376.063686 132.982904 
L 377.688583 121.807204 
L 379.313481 112.20421 
L 380.938378 103.952602 
L 382.238296 98.195584 
L 382.563276 98.195584 
L 384.188174 125.959653 
L 385.813071 149.81661 
L 387.437969 170.316285 
L 389.062867 187.931134 
L 390.687764 203.067124 
L 392.312662 216.073096 
L 393.937559 227.248796 
L 395.562457 236.85179 
L 397.187355 245.103398 
L 398.487273 250.860416 
L 398.487273 250.860416 
" clip-path="url(#pc48e510d71)" style="fill: none; stroke: #ff7f0e; stroke-width: 1.5; stroke-linecap: square"/>
   </g>
   <g id="line2d_27">
    <path d="M 73.832727 295.488 
L 75.782604 263.951601 
L 77.732482 236.526248 
L 79.682359 212.676032 
L 81.632236 191.934901 
L 83.582113 173.897559 
L 85.53199 158.211543 
L 87.481867 144.570337 
L 89.431744 132.707382 
L 89.756724 130.886367 
L 90.081704 130.886367 
L 92.031581 152.343637 
L 93.981458 171.003764 
L 95.931335 187.231378 
L 97.881212 201.343581 
L 99.831089 213.616134 
L 101.780966 224.288851 
L 103.730844 233.570287 
L 105.680721 241.641805 
L 106.0057 242.880818 
L 106.33068 242.880818 
L 108.280557 218.202228 
L 110.230434 196.740708 
L 112.180311 178.076887 
L 114.130188 161.846059 
L 116.080066 147.731062 
L 118.029943 135.456079 
L 119.97982 124.781247 
L 121.929697 115.497974 
L 122.254676 114.072952 
L 122.579656 114.072952 
L 124.529533 137.721999 
L 126.47941 158.288184 
L 128.429287 176.173386 
L 130.379165 191.727096 
L 132.329042 205.253242 
L 134.278919 217.016136 
L 136.228796 227.245633 
L 138.178673 236.141626 
L 138.503653 237.507199 
L 138.828632 237.507199 
L 140.778509 213.529107 
L 142.728387 192.67677 
L 144.678264 174.542719 
L 146.628141 158.772601 
L 148.578018 145.058256 
L 150.527895 133.131697 
L 152.477772 122.759869 
L 154.427649 113.740101 
L 154.752629 112.355527 
L 155.077609 112.355527 
L 157.027486 136.228455 
L 158.977363 156.989337 
L 160.92724 175.043856 
L 162.877117 190.744809 
L 164.826994 204.399005 
L 166.776871 216.273256 
L 168.726749 226.599595 
L 170.676626 235.579804 
L 171.001605 236.958305 
L 171.326585 236.958305 
L 173.276462 213.051766 
L 175.226339 192.261655 
L 177.176216 174.181718 
L 179.126093 158.458659 
L 181.075971 144.785239 
L 183.025848 132.89427 
L 184.975725 122.553393 
L 186.925602 113.560541 
L 187.250581 112.180099 
L 187.575561 112.180099 
L 189.525438 136.075895 
L 191.475315 156.856665 
L 193.425192 174.928479 
L 195.37507 190.644472 
L 197.324947 204.311748 
L 199.274824 216.197374 
L 201.224701 226.533604 
L 203.174578 235.522416 
L 203.499558 236.902238 
L 203.824537 236.902238 
L 205.774414 213.003008 
L 207.724292 192.219253 
L 209.674169 174.144843 
L 211.624046 158.426591 
L 213.573923 144.757352 
L 215.5238 132.870018 
L 217.473677 122.532302 
L 219.423554 113.542199 
L 219.748534 112.162179 
L 220.073514 112.162179 
L 222.023391 136.060312 
L 223.973268 156.843113 
L 225.923145 174.916693 
L 227.873022 190.634223 
L 229.822899 204.302835 
L 231.772776 216.189623 
L 233.722654 226.526864 
L 235.672531 235.516554 
L 235.99751 236.896511 
L 236.32249 236.896511 
L 238.272367 212.998027 
L 240.222244 192.214921 
L 242.172121 174.141076 
L 244.121998 158.423315 
L 246.071876 144.754503 
L 248.021753 132.867541 
L 249.97163 122.530148 
L 251.921507 113.540326 
L 252.246486 112.160349 
L 252.571466 112.160349 
L 254.521343 136.05872 
L 256.47122 156.841729 
L 258.421097 174.915489 
L 260.370975 190.633176 
L 262.320852 204.301925 
L 264.270729 216.188831 
L 266.220606 226.526175 
L 268.170483 235.515956 
L 268.495463 236.895926 
L 268.820442 236.895926 
L 270.770319 212.997519 
L 272.720197 192.214479 
L 274.670074 174.140691 
L 276.619951 158.422981 
L 278.569828 144.754212 
L 280.519705 132.867287 
L 282.469582 122.529928 
L 284.419459 113.540134 
L 284.744439 112.160162 
L 285.069419 112.160162 
L 287.019296 136.058558 
L 288.969173 156.841587 
L 290.91905 174.915366 
L 292.868927 190.633069 
L 294.818804 204.301832 
L 296.768681 216.18875 
L 298.718559 226.526105 
L 300.668436 235.515894 
L 300.993415 236.895866 
L 301.318395 236.895866 
L 303.268272 212.997467 
L 305.218149 192.214434 
L 307.168026 174.140652 
L 309.117903 158.422947 
L 311.067781 144.754182 
L 313.017658 132.867262 
L 314.967535 122.529906 
L 316.917412 113.540115 
L 317.242391 112.160143 
L 317.567371 112.160143 
L 319.517248 136.058541 
L 321.467125 156.841573 
L 323.417002 174.915354 
L 325.36688 190.633059 
L 327.316757 204.301822 
L 329.266634 216.188742 
L 331.216511 226.526098 
L 333.166388 235.515888 
L 333.491368 236.89586 
L 333.816347 236.89586 
L 335.766224 212.997461 
L 337.716102 192.214429 
L 339.665979 174.140648 
L 341.615856 158.422943 
L 343.565733 144.754179 
L 345.51561 132.867259 
L 347.465487 122.529903 
L 349.415364 113.540113 
L 349.740344 112.160141 
L 350.065324 112.160141 
L 352.015201 136.058539 
L 353.965078 156.841572 
L 355.914955 174.915353 
L 357.864832 190.633057 
L 359.814709 204.301821 
L 361.764586 216.188741 
L 363.714464 226.526097 
L 365.664341 235.515887 
L 365.98932 236.895859 
L 366.3143 236.895859 
L 368.264177 212.997461 
L 370.214054 192.214429 
L 372.163931 174.140648 
L 374.113808 158.422943 
L 376.063686 144.754179 
L 378.013563 132.867259 
L 379.96344 122.529903 
L 381.913317 113.540113 
L 382.238296 112.160141 
L 382.563276 112.160141 
L 384.513153 136.058539 
L 386.46303 156.841571 
L 388.412907 174.915352 
L 390.362785 190.633057 
L 392.312662 204.301821 
L 394.262539 216.188741 
L 396.212416 226.526097 
L 398.162293 235.515887 
L 398.487273 236.895859 
L 398.487273 236.895859 
" clip-path="url(#pc48e510d71)" style="fill: none; stroke: #2ca02c; stroke-width: 1.5; stroke-linecap: square"/>
   </g>
   <g id="patch_3">
    <path d="M 57.6 307.584 
L 57.6 41.472 
" style="fill: none; stroke: #000000; stroke-width: 0.8; stroke-linejoin: miter; stroke-linecap: square"/>
   </g>
   <g id="patch_4">
    <path d="M 414.72 307.584 
L 414.72 41.472 
" style="fill: none; stroke: #000000; stroke-width: 0.8; stroke-linejoin: miter; stroke-linecap: square"/>
   </g>
   <g id="patch_5">
    <path d="M 57.6 307.584 
L 414.72 307.584 
" style="fill: none; stroke: #000000; stroke-width: 0.8; stroke-linejoin: miter; stroke-linecap: square"/>
   </g>
   <g id="patch_6">
    <path d="M 57.6 41.472 
L 414.72 41.472 
" style="fill: none; stroke: #000000; stroke-width: 0.8; stroke-linejoin: miter; stroke-linecap: square"/>
   </g>
   <g id="legend_1">
    <g id="patch_7">
     <path d="M 294.502813 93.506375 
L 407.72 93.506375 
Q 409.72 93.506375 409.72 91.506375 
L 409.72 48.472 
Q 409.72 46.472 407.72 46.472 
L 294.502813 46.472 
Q 292.502813 46.472 292.502813 48.472 
L 292.502813 91.506375 
Q 292.502813 93.506375 294.502813 93.506375 
z
" style="fill: #ffffff; opacity: 0.8; stroke: #cccccc; stroke-linejoin: miter"/>
    </g>
    <g id="line2d_28">
     <path d="M 296.502813 54.570438 
L 306.502813 54.570438 
L 316.502813 54.570438 
" style="fill: none; stroke: #1f77b4; stroke-width: 1.5; stroke-linecap: square"/>
    </g>
    <g id="text_15">
     <!-- Vin -->
     <g transform="translate(324.502813 58.070438) scale(0.1 -0.1)">
      <use xlink:href="#DejaVuSans-56"/>
      <use xlink:href="#DejaVuSans-69" x="66.158203"/>
      <use xlink:href="#DejaVuSans-6e" x="93.941406"/>
     </g>
    </g>
    <g id="line2d_29">
     <path d="M 296.502813 69.248563 
L 306.502813 69.248563 
L 316.502813 69.248563 
" style="fill: none; stroke: #ff7f0e; stroke-width: 1.5; stroke-linecap: square"/>
    </g>
    <g id="text_16">
     <!-- Vout sans métal -->
     <g transform="translate(324.502813 72.748563) scale(0.1 -0.1)">
      <defs>
       <path id="DejaVuSans-75" d="M 544 1381 
L 544 3500 
L 1119 3500 
L 1119 1403 
Q 1119 906 1312 657 
Q 1506 409 1894 409 
Q 2359 409 2629 706 
Q 2900 1003 2900 1516 
L 2900 3500 
L 3475 3500 
L 3475 0 
L 2900 0 
L 2900 538 
Q 2691 219 2414 64 
Q 2138 -91 1772 -91 
Q 1169 -91 856 284 
Q 544 659 544 1381 
z
M 1991 3584 
L 1991 3584 
z
" transform="scale(0.015625)"/>
       <path id="DejaVuSans-74" d="M 1172 4494 
L 1172 3500 
L 2356 3500 
L 2356 3053 
L 1172 3053 
L 1172 1153 
Q 1172 725 1289 603 
Q 1406 481 1766 481 
L 2356 481 
L 2356 0 
L 1766 0 
Q 1100 0 847 248 
Q 594 497 594 1153 
L 594 3053 
L 172 3053 
L 172 3500 
L 594 3500 
L 594 4494 
L 1172 4494 
z
" transform="scale(0.015625)"/>
       <path id="DejaVuSans-61" d="M 2194 1759 
Q 1497 1759 1228 1600 
Q 959 1441 959 1056 
Q 959 750 1161 570 
Q 1363 391 1709 391 
Q 2188 391 2477 730 
Q 2766 1069 2766 1631 
L 2766 1759 
L 2194 1759 
z
M 3341 1997 
L 3341 0 
L 2766 0 
L 2766 531 
Q 2569 213 2275 61 
Q 1981 -91 1556 -91 
Q 1019 -91 701 211 
Q 384 513 384 1019 
Q 384 1609 779 1909 
Q 1175 2209 1959 2209 
L 2766 2209 
L 2766 2266 
Q 2766 2663 2505 2880 
Q 2244 3097 1772 3097 
Q 1472 3097 1187 3025 
Q 903 2953 641 2809 
L 641 3341 
Q 956 3463 1253 3523 
Q 1550 3584 1831 3584 
Q 2591 3584 2966 3190 
Q 3341 2797 3341 1997 
z
" transform="scale(0.015625)"/>
       <path id="DejaVuSans-e9" d="M 3597 1894 
L 3597 1613 
L 953 1613 
Q 991 1019 1311 708 
Q 1631 397 2203 397 
Q 2534 397 2845 478 
Q 3156 559 3463 722 
L 3463 178 
Q 3153 47 2828 -22 
Q 2503 -91 2169 -91 
Q 1331 -91 842 396 
Q 353 884 353 1716 
Q 353 2575 817 3079 
Q 1281 3584 2069 3584 
Q 2775 3584 3186 3129 
Q 3597 2675 3597 1894 
z
M 3022 2063 
Q 3016 2534 2758 2815 
Q 2500 3097 2075 3097 
Q 1594 3097 1305 2825 
Q 1016 2553 972 2059 
L 3022 2063 
z
M 2469 5119 
L 3091 5119 
L 2072 3944 
L 1594 3944 
L 2469 5119 
z
" transform="scale(0.015625)"/>
       <path id="DejaVuSans-6c" d="M 603 4863 
L 1178 4863 
L 1178 0 
L 603 0 
L 603 4863 
z
" transform="scale(0.015625)"/>
      </defs>
      <use xlink:href="#DejaVuSans-56"/>
      <use xlink:href="#DejaVuSans-6f" x="60.658203"/>
      <use xlink:href="#DejaVuSans-75" x="121.839844"/>
      <use xlink:href="#DejaVuSans-74" x="185.21875"/>
      <use xlink:href="#DejaVuSans-20" x="224.427734"/>
      <use xlink:href="#DejaVuSans-73" x="256.214844"/>
      <use xlink:href="#DejaVuSans-61" x="308.314453"/>
      <use xlink:href="#DejaVuSans-6e" x="369.59375"/>
      <use xlink:href="#DejaVuSans-73" x="432.972656"/>
      <use xlink:href="#DejaVuSans-20" x="485.072266"/>
      <use xlink:href="#DejaVuSans-6d" x="516.859375"/>
      <use xlink:href="#DejaVuSans-e9" x="614.271484"/>
      <use xlink:href="#DejaVuSans-74" x="675.794922"/>
      <use xlink:href="#DejaVuSans-61" x="715.003906"/>
      <use xlink:href="#DejaVuSans-6c" x="776.283203"/>
     </g>
    </g>
    <g id="line2d_30">
     <path d="M 296.502813 83.926688 
L 306.502813 83.926688 
L 316.502813 83.926688 
" style="fill: none; stroke: #2ca02c; stroke-width: 1.5; stroke-linecap: square"/>
    </g>
    <g id="text_17">
     <!-- Vout avec métal -->
     <g transform="translate(324.502813 87.426688) scale(0.1 -0.1)">
      <defs>
       <path id="DejaVuSans-76" d="M 191 3500 
L 800 3500 
L 1894 563 
L 2988 3500 
L 3597 3500 
L 2284 0 
L 1503 0 
L 191 3500 
z
" transform="scale(0.015625)"/>
       <path id="DejaVuSans-63" d="M 3122 3366 
L 3122 2828 
Q 2878 2963 2633 3030 
Q 2388 3097 2138 3097 
Q 1578 3097 1268 2742 
Q 959 2388 959 1747 
Q 959 1106 1268 751 
Q 1578 397 2138 397 
Q 2388 397 2633 464 
Q 2878 531 3122 666 
L 3122 134 
Q 2881 22 2623 -34 
Q 2366 -91 2075 -91 
Q 1284 -91 818 406 
Q 353 903 353 1747 
Q 353 2603 823 3093 
Q 1294 3584 2113 3584 
Q 2378 3584 2631 3529 
Q 2884 3475 3122 3366 
z
" transform="scale(0.015625)"/>
      </defs>
      <use xlink:href="#DejaVuSans-56"/>
      <use xlink:href="#DejaVuSans-6f" x="60.658203"/>
      <use xlink:href="#DejaVuSans-75" x="121.839844"/>
      <use xlink:href="#DejaVuSans-74" x="185.21875"/>
      <use xlink:href="#DejaVuSans-20" x="224.427734"/>
      <use xlink:href="#DejaVuSans-61" x="256.214844"/>
      <use xlink:href="#DejaVuSans-76" x="317.494141"/>
      <use xlink:href="#DejaVuSans-65" x="376.673828"/>
      <use xlink:href="#DejaVuSans-63" x="438.197266"/>
      <use xlink:href="#DejaVuSans-20" x="493.177734"/>
      <use xlink:href="#DejaVuSans-6d" x="524.964844"/>
      <use xlink:href="#DejaVuSans-e9" x="622.376953"/>
      <use xlink:href="#DejaVuSans-74" x="683.900391"/>
      <use xlink:href="#DejaVuSans-61" x="723.109375"/>
      <use xlink:href="#DejaVuSans-6c" x="784.388672"/>
     </g>
    </g>
   </g>
  </g>
 </g>
 <defs>
  <clipPath id="pc48e510d71">
   <rect x="57.6" y="41.472" width="357.12" height="266.112"/>
  </clipPath>
 </defs>
</svg>
